<?xml version="1.0" encoding="utf-8"?>
<!-- Generator: Adobe Illustrator 19.1.0, SVG Export Plug-In . SVG Version: 6.00 Build 0)  -->
<!DOCTYPE svg PUBLIC "-//W3C//DTD SVG 1.1//EN" "http://www.w3.org/Graphics/SVG/1.1/DTD/svg11.dtd">
<svg version="1.1" id="Layer_1" xmlns="http://www.w3.org/2000/svg" xmlns:xlink="http://www.w3.org/1999/xlink" x="0px" y="0px"
	 viewBox="0 0 60.9 75" style="enable-background:new 0 0 60.9 75;" xml:space="preserve">
<style type="text/css">
	.st0{opacity:0.3;fill:#010101;}
</style>
<path class="st0" d="M0,65.6v8.8C0,74.7,0.3,75,0.6,75h59.8c0.3,0,0.6-0.3,0.6-0.6v-8.8H0z M23.7,47.5h0.9c0.8,0,1.3,0,1.7,0.1
	c0.4,0.1,0.8,0.2,1.2,0.4c0.7,0.4,1.2,0.8,1.5,1.5c0.3,0.6,0.5,1.4,0.5,2.3c0,0.9-0.2,1.7-0.5,2.3c-0.3,0.6-0.8,1.1-1.4,1.5
	c-0.4,0.2-0.8,0.4-1.2,0.4C26,56,25.4,56,24.5,56h-0.9V47.5L23.7,47.5z M10,47.5h0.6c0.6,0,1,0,1.4,0c0.3,0,0.7,0.1,1.1,0.2
	c0.3,0.1,0.5,0.3,0.7,0.6c0.2,0.3,0.3,0.6,0.3,1c0,0.4,0,0.7-0.1,1c-0.1,0.3-0.3,0.5-0.5,0.7c-0.3,0.2-0.6,0.4-1,0.4
	c-0.4,0.1-0.9,0.1-1.5,0.1h-1L10,47.5L10,47.5z M35.7,45v13.6h3.5v-5.9H45v-2.6h-5.8v-2.5h6.2V45H35.7z M20.1,45v13.6H25
	c1.1,0,2-0.1,2.8-0.2c0.8-0.2,1.5-0.5,2.2-0.9c0.9-0.5,1.6-1.3,2.2-2.3c0.6-1,0.9-2.2,0.9-3.4c0-1.3-0.3-2.5-0.8-3.4
	c-0.5-1-1.3-1.8-2.2-2.3c-0.5-0.3-1.2-0.5-2.1-0.7c-0.8-0.2-1.7-0.3-2.9-0.3L20.1,45L20.1,45z M6.4,45v13.6H10v-4.5h2.2
	c1,0,1.8-0.1,2.5-0.4c0.7-0.3,1.2-0.7,1.8-1.2c0.4-0.4,0.7-0.9,1-1.5c0.2-0.6,0.3-1.1,0.3-1.8c0-0.8-0.1-1.5-0.4-2.1
	c-0.3-0.6-0.7-1-1.2-1.4c-0.5-0.3-0.9-0.5-1.5-0.7C13.8,45,13.1,45,12.2,45H6.4z M44.5,0v16.4h16.4L44.5,0z M0.6,0
	C0.3,0,0,0.3,0,0.6v36.9h60.9V18.8H42.8c-0.3,0-0.6-0.3-0.6-0.6V0H0.6z"/>
</svg>
