<?xml version="1.0" encoding="utf-8"?>
<!-- Generator: Adobe Illustrator 19.1.0, SVG Export Plug-In . SVG Version: 6.00 Build 0)  -->
<!DOCTYPE svg PUBLIC "-//W3C//DTD SVG 1.1//EN" "http://www.w3.org/Graphics/SVG/1.1/DTD/svg11.dtd">
<svg version="1.1" id="Layer_1" xmlns="http://www.w3.org/2000/svg" xmlns:xlink="http://www.w3.org/1999/xlink" x="0px" y="0px"
	 viewBox="0 0 62.4 75" style="enable-background:new 0 0 62.4 75;" xml:space="preserve">
<style type="text/css">
	.st0{fill:#010101;}
</style>
<g>
	<path class="st0" d="M57.4,69.8H5V25.6h52.4V69.8z M51,9.6v4c1,1,1.5,2.3,1.5,3.8c0,3-2.4,5.4-5.4,5.4c-3,0-5.4-2.4-5.4-5.4
		c0-1.5,0.6-2.8,1.5-3.8v-4h-24v4c1,1,1.5,2.3,1.5,3.8c0,3-2.4,5.4-5.4,5.4c-3,0-5.4-2.4-5.4-5.4c0-1.5,0.6-2.8,1.5-3.8v-4H0V75
		h62.4V9.6H51z"/>
	<rect x="46.6" y="32.2" class="st0" width="6.2" height="6.5"/>
	<rect x="37.5" y="32.2" class="st0" width="6.2" height="6.5"/>
	<rect x="28.4" y="32.2" class="st0" width="6.2" height="6.5"/>
	<rect x="46.6" y="41.2" class="st0" width="6.2" height="6.5"/>
	<rect x="37.5" y="41.2" class="st0" width="6.2" height="6.5"/>
	<rect x="28.4" y="41.2" class="st0" width="6.2" height="6.5"/>
	<rect x="19.2" y="41.2" class="st0" width="6.2" height="6.5"/>
	<rect x="10.1" y="41.2" class="st0" width="6.2" height="6.5"/>
	<rect x="46.6" y="50.3" class="st0" width="6.2" height="6.5"/>
	<rect x="37.5" y="50.3" class="st0" width="6.2" height="6.5"/>
	<rect x="28.4" y="50.3" class="st0" width="6.2" height="6.5"/>
	<rect x="19.2" y="50.3" class="st0" width="6.2" height="6.5"/>
	<rect x="10.1" y="50.3" class="st0" width="6.2" height="6.5"/>
	<rect x="37.5" y="59.3" class="st0" width="6.2" height="6.5"/>
	<rect x="28.4" y="59.3" class="st0" width="6.2" height="6.5"/>
	<rect x="19.2" y="59.3" class="st0" width="6.2" height="6.5"/>
	<rect x="10.1" y="59.3" class="st0" width="6.2" height="6.5"/>
	<path class="st0" d="M47.3,19.6c1,0,1.8-0.8,1.8-1.8V1.8c0-1-0.8-1.8-1.8-1.8s-1.8,0.8-1.8,1.8v15.9C45.4,18.8,46.2,19.6,47.3,19.6
		z"/>
	<path class="st0" d="M15.3,19.6c1,0,1.8-0.8,1.8-1.8V1.8c0-1-0.8-1.8-1.8-1.8c-1,0-1.8,0.8-1.8,1.8v15.9
		C13.4,18.8,14.3,19.6,15.3,19.6z"/>
</g>
</svg>
