<?xml version="1.0" encoding="utf-8"?>
<!-- Generator: Adobe Illustrator 19.1.0, SVG Export Plug-In . SVG Version: 6.00 Build 0)  -->
<!DOCTYPE svg PUBLIC "-//W3C//DTD SVG 1.1//EN" "http://www.w3.org/Graphics/SVG/1.1/DTD/svg11.dtd">
<svg version="1.1" id="Layer_1" xmlns="http://www.w3.org/2000/svg" xmlns:xlink="http://www.w3.org/1999/xlink" x="0px" y="0px"
	 viewBox="0 0 55 75" style="enable-background:new 0 0 55 75;" xml:space="preserve">
<style type="text/css">
	.st0{fill:#020202;}
</style>
<path class="st0" d="M16.6,26.6c0-6,4.9-10.9,10.9-10.9s10.9,4.9,10.9,10.9c0,6-4.9,10.9-10.9,10.9C21.5,37.5,16.6,32.6,16.6,26.6z
	 M27.5,0C12.3,0,0,12.3,0,27.5c0,19.6,23.5,45.1,24.5,46.2c0.8,0.8,1.8,1.3,3,1.3c1.1,0,2.2-0.5,3-1.3c1-1.1,24.5-26.6,24.5-46.2
	C55,12.3,42.7,0,27.5,0z"/>
</svg>
