<?xml version="1.0" encoding="utf-8"?>
<!-- Generator: Adobe Illustrator 24.1.0, SVG Export Plug-In . SVG Version: 6.00 Build 0)  -->
<svg version="1.1" id="Layer_1" xmlns="http://www.w3.org/2000/svg" xmlns:xlink="http://www.w3.org/1999/xlink" x="0px" y="0px"
	 viewBox="0 0 393 152" style="enable-background:new 0 0 393 152;" xml:space="preserve">
<style type="text/css">
	.st0{fill:#FFFFFF;}
	.st1{fill:#4FC8EC;}
</style>
<g>
	<g>
		<polygon class="st0" points="3,149.3 46.3,149.3 46,112.6 		"/>
		<polygon class="st0" points="46.3,149.3 89.6,149.3 89.3,112.6 		"/>
		<polygon class="st0" points="89.5,149.3 132.8,149.3 132.6,112.6 		"/>
		<polygon class="st1" points="132.9,149.3 176.1,149.3 175.9,112.6 		"/>
		<polygon class="st0" points="2.7,112.7 46,112.7 45.7,75.9 		"/>
		<polygon class="st0" points="45.9,112.7 89.2,112.7 89,75.9 		"/>
		<polygon class="st0" points="89.2,112.7 132.5,112.7 132.2,75.9 		"/>
		<polygon class="st0" points="132.5,112.7 175.8,112.7 175.5,75.9 		"/>
		<polygon class="st0" points="2.4,76.1 45.7,76.1 45.4,39.4 		"/>
		<polygon class="st0" points="45.7,76.1 89,76.1 88.7,39.4 		"/>
		<polygon class="st0" points="88.9,76.1 132.2,76.1 131.9,39.4 		"/>
		<polygon class="st0" points="132.2,76 175.5,76 175.3,39.3 		"/>
		<polygon class="st0" points="2.1,39.6 45.4,39.6 45.2,2.8 		"/>
		<polygon class="st0" points="45.4,39.6 88.7,39.6 88.4,2.8 		"/>
		<polygon class="st0" points="88.6,39.6 131.9,39.6 131.7,2.8 		"/>
		<polygon class="st0" points="132,39.4 175.3,39.4 175,2.7 		"/>
	</g>
	<g>
		<path class="st0" d="M211.8,12.8c-1.4-1-3-1.5-5-1.5c-1.6,0-3,0.3-4.2,0.9c-1.2,0.6-2.1,1.4-2.9,2.5c-0.8,1-1.3,2.2-1.7,3.5
			s-0.5,2.7-0.5,4.1c0,1.6,0.2,3,0.5,4.4c0.4,1.4,0.9,2.6,1.7,3.6c0.8,1,1.7,1.9,2.9,2.5c1.2,0.6,2.6,0.9,4.2,0.9
			c1.2,0,2.3-0.2,3.2-0.6c0.9-0.4,1.7-0.9,2.4-1.6c0.7-0.7,1.2-1.5,1.6-2.5s0.6-2,0.7-3.1h3.6c-0.4,3.4-1.5,6.1-3.6,8
			c-2,1.9-4.8,2.9-8.3,2.9c-2.1,0-4-0.4-5.6-1.1s-2.9-1.7-3.9-3c-1-1.3-1.8-2.8-2.4-4.5c-0.5-1.7-0.8-3.6-0.8-5.6
			c0-2,0.3-3.9,0.8-5.6s1.4-3.3,2.5-4.6c1.1-1.3,2.4-2.3,4.1-3.1c1.6-0.8,3.5-1.1,5.6-1.1c1.4,0,2.8,0.2,4.1,0.6
			c1.3,0.4,2.4,0.9,3.4,1.7s1.8,1.7,2.5,2.8c0.7,1.1,1.1,2.4,1.3,3.8h-3.6C214.1,15.3,213.2,13.8,211.8,12.8z"/>
		<path class="st0" d="M224.5,9v10.5h0.1c0.3-0.6,0.6-1.1,1.1-1.5c0.5-0.4,1-0.8,1.6-1c0.6-0.3,1.2-0.5,1.8-0.6
			c0.6-0.1,1.2-0.2,1.8-0.2c1.3,0,2.4,0.2,3.3,0.5c0.9,0.4,1.6,0.9,2.1,1.5c0.5,0.6,0.9,1.4,1.1,2.3c0.2,0.9,0.3,1.9,0.3,2.9v13
			h-3.3V22.9c0-1.2-0.4-2.2-1.1-2.9c-0.7-0.7-1.7-1.1-2.9-1.1c-1,0-1.9,0.2-2.6,0.5c-0.7,0.3-1.3,0.7-1.8,1.3
			c-0.5,0.6-0.8,1.2-1.1,2c-0.2,0.8-0.4,1.6-0.4,2.5v11.2h-3.3V9H224.5z"/>
		<path class="st0" d="M241.6,13V9h3.3v4H241.6z M244.8,16.5v19.8h-3.3V16.5H244.8z"/>
		<path class="st0" d="M260.6,20c-0.8-0.7-1.9-1-3.3-1c-1.2,0-2.2,0.2-2.9,0.7c-0.8,0.4-1.4,1-1.9,1.7c-0.5,0.7-0.8,1.5-1,2.5
			c-0.2,0.9-0.3,1.9-0.3,2.9c0,0.9,0.1,1.8,0.3,2.7s0.6,1.6,1,2.3c0.5,0.7,1.1,1.2,1.8,1.6s1.6,0.6,2.6,0.6c1.6,0,2.9-0.4,3.8-1.3
			c0.9-0.8,1.5-2,1.7-3.6h3.3c-0.4,2.5-1.3,4.3-2.7,5.7c-1.5,1.3-3.5,2-6,2c-1.5,0-2.8-0.2-4-0.7s-2.1-1.2-2.9-2.1
			c-0.8-0.9-1.4-2-1.8-3.2c-0.4-1.2-0.6-2.6-0.6-4.1c0-1.5,0.2-2.9,0.6-4.2c0.4-1.3,1-2.4,1.7-3.4c0.8-1,1.8-1.7,2.9-2.3
			c1.2-0.5,2.5-0.8,4.1-0.8c1.1,0,2.2,0.1,3.2,0.4c1,0.3,1.8,0.7,2.6,1.2c0.8,0.6,1.4,1.3,1.9,2.1c0.5,0.9,0.8,1.9,0.9,3h-3.4
			C261.9,21.6,261.4,20.7,260.6,20z"/>
		<path class="st0" d="M285.7,36.2c-0.6,0.3-1.3,0.5-2.3,0.5c-0.8,0-1.5-0.2-2-0.7c-0.5-0.5-0.7-1.2-0.7-2.3
			c-0.9,1.1-1.9,1.8-3.1,2.3c-1.2,0.5-2.5,0.7-3.8,0.7c-0.9,0-1.7-0.1-2.5-0.3s-1.5-0.5-2.1-1c-0.6-0.4-1.1-1-1.4-1.7
			c-0.3-0.7-0.5-1.5-0.5-2.5c0-1.1,0.2-2,0.6-2.8c0.4-0.7,0.9-1.3,1.5-1.7s1.3-0.8,2.1-1c0.8-0.2,1.6-0.4,2.5-0.6
			c0.9-0.2,1.7-0.3,2.5-0.4c0.8-0.1,1.5-0.2,2.1-0.4c0.6-0.2,1.1-0.4,1.5-0.7s0.5-0.8,0.5-1.4c0-0.7-0.1-1.3-0.4-1.7
			c-0.3-0.4-0.6-0.8-1-1c-0.4-0.2-0.9-0.4-1.4-0.5c-0.5-0.1-1-0.1-1.6-0.1c-1.4,0-2.5,0.3-3.4,0.8c-0.9,0.5-1.4,1.5-1.5,3h-3.3
			c0.1-1.2,0.3-2.3,0.8-3.1c0.5-0.8,1.1-1.5,1.8-2c0.8-0.5,1.6-0.9,2.6-1.1c1-0.2,2-0.3,3.2-0.3c0.9,0,1.8,0.1,2.7,0.2
			c0.9,0.1,1.7,0.4,2.4,0.8c0.7,0.4,1.3,0.9,1.7,1.7c0.4,0.7,0.7,1.6,0.7,2.8v10.2c0,0.8,0,1.3,0.1,1.7c0.1,0.4,0.4,0.5,0.9,0.5
			c0.3,0,0.6-0.1,1-0.2V36.2z M280.4,26.1c-0.4,0.3-0.9,0.5-1.6,0.7c-0.7,0.1-1.4,0.3-2.1,0.3c-0.7,0.1-1.5,0.2-2.2,0.3
			c-0.7,0.1-1.4,0.3-2,0.6c-0.6,0.3-1.1,0.6-1.4,1.1s-0.6,1.1-0.6,1.9c0,0.5,0.1,1,0.3,1.4c0.2,0.4,0.5,0.7,0.8,0.9
			c0.3,0.2,0.7,0.4,1.2,0.5c0.5,0.1,0.9,0.2,1.5,0.2c1.1,0,2-0.1,2.8-0.4s1.4-0.7,1.9-1.1c0.5-0.4,0.8-0.9,1.1-1.4s0.3-1,0.3-1.5
			V26.1z"/>
		<path class="st0" d="M302.4,41.9c-1.5,1.6-3.8,2.4-7,2.4c-0.9,0-1.9-0.1-2.8-0.3c-1-0.2-1.8-0.5-2.6-1c-0.8-0.5-1.4-1.1-1.9-1.8
			s-0.8-1.6-0.8-2.7h3.3c0,0.6,0.2,1.1,0.6,1.5c0.3,0.4,0.8,0.7,1.3,1c0.5,0.3,1,0.4,1.6,0.6c0.6,0.1,1.1,0.2,1.7,0.2
			c1.1,0,2-0.2,2.7-0.6c0.7-0.4,1.4-0.9,1.8-1.5c0.5-0.7,0.8-1.4,1.1-2.4c0.2-0.9,0.3-1.9,0.3-3v-1.3h-0.1c-0.6,1.2-1.4,2.1-2.5,2.7
			s-2.3,0.9-3.6,0.9c-1.5,0-2.8-0.3-3.9-0.8c-1.1-0.5-2-1.3-2.8-2.2c-0.7-0.9-1.3-2-1.7-3.2c-0.4-1.2-0.6-2.5-0.6-3.8
			c0-1.2,0.2-2.4,0.5-3.6c0.3-1.2,0.8-2.4,1.5-3.4c0.7-1,1.7-1.8,2.8-2.5c1.2-0.7,2.6-1,4.3-1c1.3,0,2.4,0.3,3.4,0.8
			s1.9,1.4,2.5,2.5h0v-2.8h3.1v18.1C304.6,37.9,303.9,40.3,302.4,41.9z M298.3,33c0.8-0.4,1.4-1,1.8-1.8c0.5-0.7,0.8-1.6,1-2.5
			c0.2-0.9,0.3-1.8,0.3-2.8c0-0.9-0.1-1.7-0.3-2.6c-0.2-0.8-0.5-1.6-1-2.3c-0.4-0.7-1-1.2-1.7-1.6c-0.7-0.4-1.6-0.6-2.6-0.6
			c-1,0-1.9,0.2-2.7,0.6c-0.7,0.4-1.3,0.9-1.8,1.6c-0.5,0.7-0.8,1.4-1,2.3c-0.2,0.9-0.3,1.8-0.3,2.7c0,0.9,0.1,1.8,0.3,2.7
			c0.2,0.9,0.5,1.7,0.9,2.4c0.4,0.7,1,1.3,1.7,1.8c0.7,0.4,1.6,0.7,2.7,0.7C296.6,33.7,297.5,33.4,298.3,33z"/>
		<path class="st0" d="M307.9,22.4c0.4-1.3,1-2.4,1.8-3.3c0.8-0.9,1.8-1.7,3-2.2s2.6-0.8,4.1-0.8c1.6,0,3,0.3,4.2,0.8s2.2,1.3,3,2.2
			c0.8,0.9,1.4,2,1.8,3.3c0.4,1.3,0.6,2.6,0.6,4.1c0,1.5-0.2,2.8-0.6,4.1s-1,2.3-1.8,3.3c-0.8,0.9-1.8,1.7-3,2.2
			c-1.2,0.5-2.6,0.8-4.2,0.8c-1.6,0-2.9-0.3-4.1-0.8c-1.2-0.5-2.2-1.2-3-2.2c-0.8-0.9-1.4-2-1.8-3.3s-0.6-2.6-0.6-4.1
			C307.3,25,307.5,23.6,307.9,22.4z M311.2,29.6c0.3,0.9,0.8,1.7,1.3,2.3s1.2,1.1,2,1.4c0.8,0.3,1.5,0.5,2.4,0.5
			c0.8,0,1.6-0.2,2.4-0.5c0.8-0.3,1.4-0.8,2-1.4s1-1.4,1.3-2.3c0.3-0.9,0.5-2,0.5-3.2s-0.2-2.3-0.5-3.2c-0.3-0.9-0.8-1.7-1.3-2.4
			s-1.2-1.1-2-1.5c-0.8-0.3-1.6-0.5-2.4-0.5c-0.8,0-1.6,0.2-2.4,0.5c-0.8,0.3-1.4,0.8-2,1.5s-1,1.4-1.3,2.4c-0.3,0.9-0.5,2-0.5,3.2
			S310.9,28.7,311.2,29.6z"/>
		<path class="st0" d="M211.8,50.3c-1.4-1-3-1.5-5-1.5c-1.6,0-3,0.3-4.2,0.9c-1.2,0.6-2.1,1.4-2.9,2.5c-0.8,1-1.3,2.2-1.7,3.5
			s-0.5,2.7-0.5,4.1c0,1.6,0.2,3,0.5,4.4c0.4,1.4,0.9,2.6,1.7,3.6c0.8,1,1.7,1.9,2.9,2.5c1.2,0.6,2.6,0.9,4.2,0.9
			c1.2,0,2.3-0.2,3.2-0.6c0.9-0.4,1.7-0.9,2.4-1.6c0.7-0.7,1.2-1.5,1.6-2.5s0.6-2,0.7-3.1h3.6c-0.4,3.4-1.5,6.1-3.6,8
			c-2,1.9-4.8,2.9-8.3,2.9c-2.1,0-4-0.4-5.6-1.1s-2.9-1.7-3.9-3c-1-1.3-1.8-2.8-2.4-4.5c-0.5-1.7-0.8-3.6-0.8-5.6
			c0-2,0.3-3.9,0.8-5.6s1.4-3.3,2.5-4.6c1.1-1.3,2.4-2.3,4.1-3.1c1.6-0.8,3.5-1.1,5.6-1.1c1.4,0,2.8,0.2,4.1,0.6
			c1.3,0.4,2.4,0.9,3.4,1.7s1.8,1.7,2.5,2.8c0.7,1.1,1.1,2.4,1.3,3.8h-3.6C214.1,52.7,213.2,51.3,211.8,50.3z"/>
		<path class="st0" d="M234.6,73.8v-3.1h-0.1c-0.7,1.2-1.6,2.1-2.6,2.7c-1.1,0.6-2.3,0.9-3.8,0.9c-1.3,0-2.4-0.2-3.3-0.5
			c-0.9-0.3-1.6-0.8-2.1-1.5s-0.9-1.4-1.1-2.3c-0.2-0.9-0.3-1.9-0.3-2.9V54h3.3v13.4c0,1.2,0.4,2.2,1.1,2.9c0.7,0.7,1.7,1.1,2.9,1.1
			c1,0,1.9-0.2,2.6-0.5c0.7-0.3,1.3-0.7,1.8-1.3c0.5-0.6,0.8-1.2,1.1-2c0.2-0.8,0.4-1.6,0.4-2.5V54h3.3v19.8H234.6z"/>
		<path class="st0" d="M244.8,46.4v27.3h-3.3V46.4H244.8z"/>
		<path class="st0" d="M257.2,54v2.9h-3.9v12.3c0,0.4,0,0.7,0.1,0.9c0.1,0.2,0.2,0.4,0.4,0.5c0.2,0.1,0.4,0.2,0.7,0.2
			c0.3,0,0.7,0.1,1.2,0.1h1.5v2.9h-2.5c-0.8,0-1.6-0.1-2.2-0.2c-0.6-0.1-1.1-0.3-1.5-0.6c-0.4-0.3-0.6-0.7-0.8-1.3
			c-0.2-0.6-0.3-1.3-0.3-2.2V56.9h-3.4V54h3.4V48h3.3V54H257.2z"/>
		<path class="st0" d="M273,73.8v-3.1h-0.1c-0.7,1.2-1.6,2.1-2.6,2.7c-1.1,0.6-2.3,0.9-3.8,0.9c-1.3,0-2.4-0.2-3.3-0.5
			s-1.6-0.8-2.1-1.5c-0.5-0.6-0.9-1.4-1.1-2.3c-0.2-0.9-0.3-1.9-0.3-2.9V54h3.3v13.4c0,1.2,0.4,2.2,1.1,2.9s1.7,1.1,2.9,1.1
			c1,0,1.9-0.2,2.6-0.5c0.7-0.3,1.3-0.7,1.8-1.3c0.5-0.6,0.8-1.2,1.1-2c0.2-0.8,0.4-1.6,0.4-2.5V54h3.3v19.8H273z"/>
		<path class="st0" d="M282.7,54v4.2h0.1c0.8-1.6,1.8-2.8,2.9-3.6c1.1-0.8,2.6-1.1,4.4-1.1V57c-1.3,0-2.4,0.2-3.3,0.5
			c-0.9,0.4-1.7,0.9-2.2,1.6c-0.6,0.7-1,1.5-1.2,2.5c-0.3,1-0.4,2.1-0.4,3.4v8.8h-3.3V54H282.7z"/>
		<path class="st0" d="M308.9,73.7c-0.6,0.3-1.3,0.5-2.3,0.5c-0.8,0-1.5-0.2-2-0.7c-0.5-0.5-0.7-1.2-0.7-2.3
			c-0.9,1.1-1.9,1.8-3.1,2.3c-1.2,0.5-2.5,0.7-3.8,0.7c-0.9,0-1.7-0.1-2.5-0.3s-1.5-0.5-2.1-1c-0.6-0.4-1.1-1-1.4-1.7
			c-0.3-0.7-0.5-1.5-0.5-2.5c0-1.1,0.2-2,0.6-2.8c0.4-0.7,0.9-1.3,1.5-1.7c0.6-0.4,1.3-0.8,2.1-1c0.8-0.2,1.6-0.4,2.5-0.6
			c0.9-0.2,1.7-0.3,2.5-0.4c0.8-0.1,1.5-0.2,2.1-0.4c0.6-0.2,1.1-0.4,1.5-0.7s0.5-0.8,0.5-1.4c0-0.7-0.1-1.3-0.4-1.7
			c-0.3-0.4-0.6-0.8-1-1c-0.4-0.2-0.9-0.4-1.4-0.5c-0.5-0.1-1-0.1-1.6-0.1c-1.4,0-2.5,0.3-3.4,0.8c-0.9,0.5-1.4,1.5-1.5,3h-3.3
			c0.1-1.2,0.3-2.3,0.8-3.1c0.5-0.8,1.1-1.5,1.8-2c0.8-0.5,1.6-0.9,2.6-1.1c1-0.2,2-0.3,3.2-0.3c0.9,0,1.8,0.1,2.7,0.2
			c0.9,0.1,1.7,0.4,2.4,0.8c0.7,0.4,1.3,0.9,1.7,1.7c0.4,0.7,0.7,1.6,0.7,2.8v10.2c0,0.8,0,1.3,0.1,1.7c0.1,0.4,0.4,0.5,0.9,0.5
			c0.3,0,0.6-0.1,1-0.2V73.7z M303.6,63.6c-0.4,0.3-0.9,0.5-1.6,0.7c-0.7,0.1-1.4,0.3-2.1,0.3c-0.7,0.1-1.5,0.2-2.2,0.3
			c-0.7,0.1-1.4,0.3-2,0.6c-0.6,0.3-1.1,0.6-1.4,1.1s-0.6,1.1-0.6,1.9c0,0.5,0.1,1,0.3,1.4c0.2,0.4,0.5,0.7,0.8,0.9
			c0.3,0.2,0.7,0.4,1.2,0.5c0.5,0.1,0.9,0.2,1.5,0.2c1.1,0,2-0.1,2.8-0.4s1.4-0.7,1.9-1.1c0.5-0.4,0.8-0.9,1.1-1.4s0.3-1,0.3-1.5
			V63.6z"/>
		<path class="st0" d="M314.2,46.4v27.3H311V46.4H314.2z"/>
		<path class="st0" d="M206.8,83.9l10.7,27.3h-4l-3-8.2h-11.6l-3.1,8.2h-3.7l10.6-27.3H206.8z M209.3,99.9l-4.6-12.7h-0.1L200,99.9
			H209.3z"/>
		<path class="st0" d="M230.3,94.9c-0.8-0.7-1.9-1-3.3-1c-1.2,0-2.2,0.2-2.9,0.7c-0.8,0.4-1.4,1-1.9,1.7c-0.5,0.7-0.8,1.5-1,2.5
			c-0.2,0.9-0.3,1.9-0.3,2.9c0,0.9,0.1,1.8,0.3,2.7c0.2,0.9,0.6,1.6,1,2.3c0.5,0.7,1.1,1.2,1.8,1.6c0.7,0.4,1.6,0.6,2.6,0.6
			c1.6,0,2.9-0.4,3.8-1.3c0.9-0.8,1.5-2,1.7-3.6h3.3c-0.4,2.4-1.3,4.3-2.7,5.7c-1.5,1.3-3.5,2-6,2c-1.5,0-2.8-0.2-4-0.7
			c-1.2-0.5-2.1-1.2-2.9-2.1s-1.4-2-1.8-3.2c-0.4-1.2-0.6-2.6-0.6-4.1c0-1.5,0.2-2.9,0.6-4.2c0.4-1.3,1-2.4,1.7-3.4
			c0.8-1,1.8-1.7,2.9-2.3c1.2-0.5,2.5-0.8,4.1-0.8c1.1,0,2.2,0.1,3.2,0.4c1,0.3,1.8,0.7,2.6,1.2s1.4,1.3,1.9,2.1
			c0.5,0.9,0.8,1.9,0.9,3h-3.4C231.6,96.5,231.1,95.6,230.3,94.9z"/>
		<path class="st0" d="M249.7,94.9c-0.8-0.7-1.9-1-3.3-1c-1.2,0-2.2,0.2-2.9,0.7c-0.8,0.4-1.4,1-1.9,1.7c-0.5,0.7-0.8,1.5-1,2.5
			c-0.2,0.9-0.3,1.9-0.3,2.9c0,0.9,0.1,1.8,0.3,2.7c0.2,0.9,0.6,1.6,1,2.3c0.5,0.7,1.1,1.2,1.8,1.6c0.7,0.4,1.6,0.6,2.6,0.6
			c1.6,0,2.9-0.4,3.8-1.3c0.9-0.8,1.5-2,1.7-3.6h3.3c-0.4,2.4-1.3,4.3-2.7,5.7c-1.5,1.3-3.5,2-6,2c-1.5,0-2.8-0.2-4-0.7
			c-1.2-0.5-2.1-1.2-2.9-2.1s-1.4-2-1.8-3.2c-0.4-1.2-0.6-2.6-0.6-4.1c0-1.5,0.2-2.9,0.6-4.2c0.4-1.3,1-2.4,1.7-3.4
			c0.8-1,1.8-1.7,2.9-2.3c1.2-0.5,2.5-0.8,4.1-0.8c1.1,0,2.2,0.1,3.2,0.4c1,0.3,1.8,0.7,2.6,1.2s1.4,1.3,1.9,2.1
			c0.5,0.9,0.8,1.9,0.9,3h-3.4C251,96.5,250.5,95.6,249.7,94.9z"/>
		<path class="st0" d="M271.3,110c-1.5,1.1-3.3,1.7-5.6,1.7c-1.6,0-3-0.3-4.1-0.8c-1.2-0.5-2.1-1.2-2.9-2.1s-1.4-2-1.8-3.3
			c-0.4-1.3-0.6-2.7-0.7-4.2c0-1.5,0.2-2.9,0.7-4.1c0.5-1.2,1.1-2.3,1.9-3.3c0.8-0.9,1.8-1.6,2.9-2.1c1.1-0.5,2.4-0.8,3.7-0.8
			c1.8,0,3.2,0.4,4.4,1.1c1.2,0.7,2.1,1.7,2.8,2.8c0.7,1.1,1.2,2.3,1.5,3.7c0.3,1.3,0.4,2.6,0.3,3.8h-14.8c0,0.9,0.1,1.7,0.3,2.5
			c0.2,0.8,0.6,1.5,1.1,2.1c0.5,0.6,1.2,1.1,2,1.4c0.8,0.4,1.7,0.5,2.8,0.5c1.4,0,2.5-0.3,3.4-1c0.9-0.6,1.5-1.6,1.7-2.9h3.2
			C273.7,107.2,272.7,108.8,271.3,110z M270.5,97.3c-0.3-0.7-0.7-1.3-1.2-1.8c-0.5-0.5-1.1-0.9-1.8-1.2c-0.7-0.3-1.4-0.4-2.2-0.4
			c-0.8,0-1.6,0.1-2.3,0.4c-0.7,0.3-1.3,0.7-1.7,1.2c-0.5,0.5-0.9,1.1-1.1,1.8c-0.3,0.7-0.4,1.4-0.5,2.2H271
			C270.9,98.7,270.8,97.9,270.5,97.3z"/>
		<path class="st0" d="M279.1,106.8c0.3,0.5,0.7,0.9,1.2,1.2c0.5,0.3,1.1,0.5,1.7,0.6c0.6,0.1,1.3,0.2,1.9,0.2c0.5,0,1,0,1.6-0.1
			c0.6-0.1,1.1-0.2,1.5-0.4s0.9-0.5,1.2-0.9c0.3-0.4,0.5-0.9,0.5-1.5c0-0.8-0.3-1.5-1-1.9c-0.6-0.4-1.4-0.8-2.4-1.1
			c-1-0.3-2-0.5-3.1-0.7c-1.1-0.2-2.2-0.5-3.1-0.9s-1.8-1-2.4-1.7s-1-1.7-1-3c0-1,0.2-1.8,0.7-2.6c0.4-0.7,1-1.3,1.7-1.7
			s1.5-0.8,2.4-1c0.9-0.2,1.8-0.3,2.6-0.3c1.1,0,2.2,0.1,3.1,0.3c0.9,0.2,1.8,0.5,2.5,1c0.7,0.5,1.3,1.1,1.7,1.9
			c0.4,0.8,0.7,1.8,0.8,3h-3.3c-0.1-0.6-0.2-1.2-0.5-1.6c-0.3-0.4-0.6-0.8-1.1-1c-0.4-0.3-0.9-0.4-1.4-0.6c-0.5-0.1-1.1-0.2-1.6-0.2
			c-0.5,0-1,0-1.5,0.1c-0.5,0.1-1,0.2-1.4,0.4s-0.7,0.4-1,0.8c-0.3,0.3-0.4,0.7-0.4,1.2c0,0.6,0.2,1,0.6,1.4
			c0.4,0.4,0.9,0.7,1.5,0.9s1.3,0.4,2.1,0.6s1.5,0.3,2.3,0.5c0.8,0.2,1.6,0.4,2.4,0.7c0.8,0.3,1.5,0.6,2.1,1s1.1,1,1.5,1.6
			c0.4,0.6,0.6,1.4,0.6,2.4c0,1.2-0.2,2.2-0.7,3c-0.5,0.8-1.1,1.4-2,1.9c-0.8,0.5-1.7,0.8-2.7,1c-1,0.2-2,0.3-3,0.3
			c-1.1,0-2.1-0.1-3.1-0.3c-1-0.2-1.9-0.6-2.6-1.1c-0.8-0.5-1.4-1.2-1.8-2.1c-0.5-0.9-0.7-1.9-0.8-3.1h3.3
			C278.7,105.7,278.8,106.3,279.1,106.8z"/>
		<path class="st0" d="M297.1,106.8c0.3,0.5,0.7,0.9,1.2,1.2c0.5,0.3,1.1,0.5,1.7,0.6c0.6,0.1,1.3,0.2,1.9,0.2c0.5,0,1,0,1.6-0.1
			c0.6-0.1,1.1-0.2,1.5-0.4s0.9-0.5,1.2-0.9c0.3-0.4,0.5-0.9,0.5-1.5c0-0.8-0.3-1.5-1-1.9c-0.6-0.4-1.4-0.8-2.4-1.1
			c-1-0.3-2-0.5-3.1-0.7c-1.1-0.2-2.2-0.5-3.1-0.9s-1.8-1-2.4-1.7s-1-1.7-1-3c0-1,0.2-1.8,0.7-2.6c0.4-0.7,1-1.3,1.7-1.7
			s1.5-0.8,2.4-1c0.9-0.2,1.8-0.3,2.6-0.3c1.1,0,2.2,0.1,3.1,0.3c0.9,0.2,1.8,0.5,2.5,1c0.7,0.5,1.3,1.1,1.7,1.9
			c0.4,0.8,0.7,1.8,0.8,3h-3.3c-0.1-0.6-0.2-1.2-0.5-1.6c-0.3-0.4-0.6-0.8-1.1-1c-0.4-0.3-0.9-0.4-1.4-0.6c-0.5-0.1-1.1-0.2-1.6-0.2
			c-0.5,0-1,0-1.5,0.1c-0.5,0.1-1,0.2-1.4,0.4s-0.7,0.4-1,0.8c-0.3,0.3-0.4,0.7-0.4,1.2c0,0.6,0.2,1,0.6,1.4
			c0.4,0.4,0.9,0.7,1.5,0.9s1.3,0.4,2.1,0.6s1.5,0.3,2.3,0.5c0.8,0.2,1.6,0.4,2.4,0.7c0.8,0.3,1.5,0.6,2.1,1s1.1,1,1.5,1.6
			c0.4,0.6,0.6,1.4,0.6,2.4c0,1.2-0.2,2.2-0.7,3c-0.5,0.8-1.1,1.4-2,1.9c-0.8,0.5-1.7,0.8-2.7,1c-1,0.2-2,0.3-3,0.3
			c-1.1,0-2.1-0.1-3.1-0.3c-1-0.2-1.9-0.6-2.6-1.1c-0.8-0.5-1.4-1.2-1.8-2.1c-0.5-0.9-0.7-1.9-0.8-3.1h3.3
			C296.7,105.7,296.8,106.3,297.1,106.8z"/>
		<path class="st0" d="M312.8,87.9v-4h3.3v4H312.8z M316.1,91.4v19.8h-3.3V91.4H316.1z"/>
		<path class="st0" d="M323.4,83.9v10.2h0.1c0.5-1.1,1.4-1.9,2.5-2.4c1.1-0.5,2.4-0.7,3.8-0.7c1.5,0,2.9,0.3,4,0.8s2.1,1.3,2.8,2.3
			s1.3,2.1,1.7,3.3c0.4,1.3,0.6,2.6,0.6,4c0,1.4-0.2,2.7-0.6,4c-0.4,1.2-0.9,2.3-1.7,3.3c-0.8,0.9-1.7,1.7-2.8,2.2
			c-1.1,0.5-2.5,0.8-4,0.8c-0.5,0-1-0.1-1.6-0.2c-0.6-0.1-1.2-0.3-1.8-0.5s-1.1-0.5-1.7-0.9c-0.5-0.4-1-0.9-1.3-1.5h-0.1v2.6h-3.3
			V83.9H323.4z M335,98.5c-0.2-0.9-0.6-1.7-1.1-2.4c-0.5-0.7-1.1-1.2-1.9-1.6c-0.8-0.4-1.7-0.6-2.7-0.6c-1.1,0-2,0.2-2.8,0.7
			c-0.8,0.4-1.4,1-1.9,1.7c-0.5,0.7-0.8,1.5-1.1,2.4c-0.2,0.9-0.3,1.8-0.3,2.7c0,1,0.1,1.9,0.3,2.8s0.6,1.7,1.1,2.4
			c0.5,0.7,1.1,1.2,1.9,1.7s1.7,0.6,2.9,0.6c1.1,0,2.1-0.2,2.8-0.7c0.8-0.4,1.4-1,1.8-1.7c0.5-0.7,0.8-1.5,1-2.4
			c0.2-0.9,0.3-1.9,0.3-2.8C335.4,100.2,335.3,99.3,335,98.5z"/>
		<path class="st0" d="M341.7,87.9v-4h3.3v4H341.7z M345,91.4v19.8h-3.3V91.4H345z"/>
		<path class="st0" d="M352.3,83.9v27.3h-3.3V83.9H352.3z"/>
		<path class="st0" d="M356.4,87.9v-4h3.3v4H356.4z M359.7,91.4v19.8h-3.3V91.4H359.7z"/>
		<path class="st0" d="M372,91.4v2.9h-3.9v12.3c0,0.4,0,0.7,0.1,0.9s0.2,0.4,0.4,0.5s0.4,0.2,0.7,0.2c0.3,0,0.7,0.1,1.2,0.1h1.5v2.9
			h-2.5c-0.8,0-1.6-0.1-2.2-0.2c-0.6-0.1-1.1-0.3-1.5-0.6c-0.4-0.3-0.6-0.7-0.8-1.3c-0.2-0.6-0.3-1.3-0.3-2.2V94.3h-3.4v-2.9h3.4
			v-5.9h3.3v5.9H372z"/>
		<path class="st0" d="M382.3,113.9c-0.4,1-0.8,1.8-1.1,2.4c-0.4,0.7-0.8,1.2-1.2,1.6s-0.9,0.7-1.5,0.9s-1.2,0.3-1.9,0.3
			c-0.4,0-0.8,0-1.1-0.1c-0.4-0.1-0.8-0.1-1.1-0.3v-3c0.3,0.1,0.6,0.2,1,0.3c0.4,0.1,0.7,0.1,0.9,0.1c0.7,0,1.2-0.2,1.7-0.5
			c0.4-0.3,0.8-0.8,1-1.4l1.3-3.3l-7.8-19.7h3.7l5.8,16.2h0.1l5.6-16.2h3.4L382.3,113.9z"/>
		<path class="st0" d="M211.8,125.2c-1.4-1-3-1.5-5-1.5c-1.6,0-3,0.3-4.2,0.9s-2.1,1.4-2.9,2.5s-1.3,2.2-1.7,3.5s-0.5,2.7-0.5,4.1
			c0,1.6,0.2,3,0.5,4.4s0.9,2.6,1.7,3.6c0.8,1,1.7,1.9,2.9,2.5s2.6,0.9,4.2,0.9c1.2,0,2.3-0.2,3.2-0.6c0.9-0.4,1.7-0.9,2.4-1.6
			c0.7-0.7,1.2-1.5,1.6-2.5s0.6-2,0.7-3.1h3.6c-0.4,3.4-1.5,6.1-3.6,8c-2,1.9-4.8,2.9-8.3,2.9c-2.1,0-4-0.4-5.6-1.1s-2.9-1.7-3.9-3
			c-1-1.3-1.8-2.8-2.4-4.5s-0.8-3.6-0.8-5.6c0-2,0.3-3.9,0.8-5.6c0.6-1.7,1.4-3.3,2.5-4.6s2.4-2.3,4.1-3.1c1.6-0.8,3.5-1.1,5.6-1.1
			c1.4,0,2.8,0.2,4.1,0.6c1.3,0.4,2.4,0.9,3.4,1.7s1.8,1.7,2.5,2.8c0.7,1.1,1.1,2.4,1.3,3.8h-3.6
			C214.1,127.6,213.2,126.2,211.8,125.2z"/>
		<path class="st0" d="M220.8,134.7c0.4-1.3,1-2.4,1.8-3.3c0.8-0.9,1.8-1.7,3-2.2c1.2-0.5,2.6-0.8,4.1-0.8c1.6,0,3,0.3,4.2,0.8
			c1.2,0.5,2.2,1.3,3,2.2c0.8,0.9,1.4,2,1.8,3.3c0.4,1.3,0.6,2.6,0.6,4.1c0,1.5-0.2,2.8-0.6,4.1c-0.4,1.3-1,2.3-1.8,3.3
			c-0.8,0.9-1.8,1.7-3,2.2c-1.2,0.5-2.6,0.8-4.2,0.8c-1.6,0-2.9-0.3-4.1-0.8c-1.2-0.5-2.2-1.2-3-2.2c-0.8-0.9-1.4-2-1.8-3.3
			c-0.4-1.2-0.6-2.6-0.6-4.1C220.2,137.4,220.4,136,220.8,134.7z M224.1,142c0.3,0.9,0.8,1.7,1.3,2.3c0.6,0.6,1.2,1.1,2,1.4
			c0.8,0.3,1.5,0.5,2.4,0.5c0.8,0,1.6-0.2,2.4-0.5c0.8-0.3,1.4-0.8,2-1.4c0.6-0.6,1-1.4,1.3-2.3c0.3-0.9,0.5-2,0.5-3.2
			c0-1.2-0.2-2.3-0.5-3.2c-0.3-0.9-0.8-1.7-1.3-2.4c-0.6-0.6-1.2-1.1-2-1.5s-1.5-0.5-2.4-0.5c-0.8,0-1.6,0.2-2.4,0.5
			c-0.8,0.3-1.4,0.8-2,1.5c-0.6,0.6-1,1.4-1.3,2.4c-0.3,0.9-0.5,2-0.5,3.2C223.6,140,223.8,141.1,224.1,142z"/>
		<path class="st0" d="M245.1,128.9v3.1h0.1c1.4-2.4,3.5-3.6,6.4-3.6c1.3,0,2.4,0.2,3.3,0.5s1.6,0.9,2.1,1.5s0.9,1.4,1.1,2.3
			c0.2,0.9,0.3,1.9,0.3,2.9v13h-3.3v-13.4c0-1.2-0.4-2.2-1.1-2.9s-1.7-1.1-2.9-1.1c-1,0-1.9,0.2-2.6,0.5c-0.7,0.3-1.3,0.7-1.8,1.3
			c-0.5,0.6-0.8,1.2-1.1,2c-0.2,0.8-0.4,1.6-0.4,2.5v11.2h-3.3v-19.8H245.1z"/>
		<path class="st0" d="M264.7,144.3c0.3,0.5,0.7,0.9,1.2,1.2c0.5,0.3,1.1,0.5,1.7,0.6c0.6,0.1,1.3,0.2,1.9,0.2c0.5,0,1,0,1.6-0.1
			c0.6-0.1,1.1-0.2,1.5-0.4s0.9-0.5,1.2-0.9c0.3-0.4,0.5-0.9,0.5-1.5c0-0.8-0.3-1.5-1-1.9c-0.6-0.4-1.4-0.8-2.4-1.1
			c-1-0.3-2-0.5-3.1-0.7c-1.1-0.2-2.2-0.5-3.1-0.9s-1.8-1-2.4-1.7c-0.6-0.7-1-1.7-1-3c0-1,0.2-1.8,0.7-2.6c0.4-0.7,1-1.3,1.7-1.7
			s1.5-0.8,2.4-1c0.9-0.2,1.8-0.3,2.6-0.3c1.1,0,2.2,0.1,3.1,0.3c0.9,0.2,1.8,0.5,2.5,1c0.7,0.5,1.3,1.1,1.7,1.9
			c0.4,0.8,0.7,1.8,0.8,3h-3.3c-0.1-0.6-0.2-1.2-0.5-1.6c-0.3-0.4-0.6-0.8-1.1-1c-0.4-0.3-0.9-0.4-1.4-0.6c-0.5-0.1-1.1-0.2-1.6-0.2
			c-0.5,0-1,0-1.5,0.1c-0.5,0.1-1,0.2-1.4,0.4c-0.4,0.2-0.7,0.4-1,0.8c-0.3,0.3-0.4,0.7-0.4,1.2c0,0.6,0.2,1,0.6,1.4
			s0.9,0.7,1.5,0.9s1.3,0.4,2.1,0.6s1.5,0.3,2.3,0.5c0.8,0.2,1.6,0.4,2.4,0.7c0.8,0.3,1.5,0.6,2.1,1s1.1,1,1.5,1.6
			c0.4,0.6,0.6,1.4,0.6,2.4c0,1.2-0.2,2.2-0.7,3c-0.5,0.8-1.1,1.4-2,1.9c-0.8,0.5-1.7,0.8-2.7,1c-1,0.2-2,0.3-3,0.3
			c-1.1,0-2.1-0.1-3.1-0.3c-1-0.2-1.9-0.6-2.6-1.1c-0.8-0.5-1.4-1.2-1.8-2.1c-0.5-0.9-0.7-1.9-0.8-3.1h3.3
			C264.2,143.2,264.4,143.8,264.7,144.3z"/>
		<path class="st0" d="M279.8,134.7c0.4-1.3,1-2.4,1.8-3.3c0.8-0.9,1.8-1.7,3-2.2c1.2-0.5,2.6-0.8,4.1-0.8c1.6,0,3,0.3,4.2,0.8
			c1.2,0.5,2.2,1.3,3,2.2c0.8,0.9,1.4,2,1.8,3.3c0.4,1.3,0.6,2.6,0.6,4.1c0,1.5-0.2,2.8-0.6,4.1c-0.4,1.3-1,2.3-1.8,3.3
			c-0.8,0.9-1.8,1.7-3,2.2c-1.2,0.5-2.6,0.8-4.2,0.8c-1.6,0-2.9-0.3-4.1-0.8c-1.2-0.5-2.2-1.2-3-2.2c-0.8-0.9-1.4-2-1.8-3.3
			c-0.4-1.2-0.6-2.6-0.6-4.1C279.1,137.4,279.3,136,279.8,134.7z M283.1,142c0.3,0.9,0.8,1.7,1.3,2.3c0.6,0.6,1.2,1.1,2,1.4
			c0.8,0.3,1.5,0.5,2.4,0.5c0.8,0,1.6-0.2,2.4-0.5c0.8-0.3,1.4-0.8,2-1.4c0.6-0.6,1-1.4,1.3-2.3c0.3-0.9,0.5-2,0.5-3.2
			c0-1.2-0.2-2.3-0.5-3.2c-0.3-0.9-0.8-1.7-1.3-2.4c-0.6-0.6-1.2-1.1-2-1.5c-0.8-0.3-1.6-0.5-2.4-0.5c-0.8,0-1.6,0.2-2.4,0.5
			c-0.8,0.3-1.4,0.8-2,1.5c-0.6,0.6-1,1.4-1.3,2.4c-0.3,0.9-0.5,2-0.5,3.2C282.6,140,282.7,141.1,283.1,142z"/>
		<path class="st0" d="M304,128.9v4.2h0.1c0.8-1.6,1.8-2.8,2.9-3.6s2.6-1.1,4.4-1.1v3.4c-1.3,0-2.4,0.2-3.3,0.5
			c-0.9,0.4-1.7,0.9-2.2,1.6s-1,1.5-1.2,2.5c-0.3,1-0.4,2.1-0.4,3.4v8.8h-3.3v-19.8H304z"/>
		<path class="st0" d="M322.6,128.9v2.9h-3.9v12.3c0,0.4,0,0.7,0.1,0.9s0.2,0.4,0.4,0.5s0.4,0.2,0.7,0.2c0.3,0,0.7,0.1,1.2,0.1h1.5
			v2.9h-2.5c-0.8,0-1.6-0.1-2.2-0.2c-0.6-0.1-1.1-0.3-1.5-0.6c-0.4-0.3-0.6-0.7-0.8-1.3c-0.2-0.6-0.3-1.3-0.3-2.2v-12.6h-3.4v-2.9
			h3.4V123h3.3v5.9H322.6z"/>
		<path class="st0" d="M325.3,125.3v-4h3.3v4H325.3z M328.5,128.9v19.8h-3.3v-19.8H328.5z"/>
		<path class="st0" d="M345.7,148.7v-3.1h-0.1c-0.7,1.2-1.6,2.1-2.6,2.7c-1.1,0.6-2.3,0.9-3.8,0.9c-1.3,0-2.4-0.2-3.3-0.5
			c-0.9-0.3-1.6-0.8-2.1-1.5s-0.9-1.4-1.1-2.3c-0.2-0.9-0.3-1.9-0.3-2.9v-13h3.3v13.4c0,1.2,0.4,2.2,1.1,2.9
			c0.7,0.7,1.7,1.1,2.9,1.1c1,0,1.9-0.2,2.6-0.5c0.7-0.3,1.3-0.7,1.8-1.3c0.5-0.6,0.8-1.2,1.1-2s0.4-1.6,0.4-2.5v-11.2h3.3v19.8
			H345.7z"/>
		<path class="st0" d="M355.6,128.9v2.9h0.1c1.5-2.2,3.6-3.4,6.4-3.4c1.2,0,2.3,0.3,3.3,0.8c1,0.5,1.7,1.4,2.1,2.6
			c0.7-1.1,1.5-1.9,2.6-2.5s2.3-0.9,3.6-0.9c1,0,1.9,0.1,2.7,0.3c0.8,0.2,1.5,0.6,2.1,1c0.6,0.5,1,1.1,1.3,1.8s0.5,1.6,0.5,2.6v14.5
			h-3.3v-13c0-0.6-0.1-1.2-0.2-1.7c-0.1-0.5-0.3-1-0.6-1.4c-0.3-0.4-0.7-0.7-1.2-0.9c-0.5-0.2-1.1-0.3-1.9-0.3
			c-1.6,0-2.9,0.5-3.8,1.4s-1.4,2.1-1.4,3.7v12.3h-3.3v-13c0-0.6-0.1-1.2-0.2-1.8c-0.1-0.5-0.3-1-0.6-1.4c-0.3-0.4-0.7-0.7-1.1-0.9
			c-0.5-0.2-1.1-0.3-1.8-0.3c-0.9,0-1.8,0.2-2.4,0.6c-0.7,0.4-1.2,0.8-1.6,1.4s-0.7,1.1-0.9,1.7c-0.2,0.6-0.3,1.1-0.3,1.4v12.3h-3.3
			v-19.8H355.6z"/>
	</g>
</g>
</svg>
