<?xml version="1.0" encoding="utf-8"?>
<!-- Generator: Adobe Illustrator 24.1.2, SVG Export Plug-In . SVG Version: 6.00 Build 0)  -->
<svg version="1.1" id="Layer_1" xmlns="http://www.w3.org/2000/svg" xmlns:xlink="http://www.w3.org/1999/xlink" x="0px" y="0px"
	 viewBox="0 0 174 146.6" style="enable-background:new 0 0 174 146.6;" xml:space="preserve">
<style type="text/css">
	.st0{fill:#231F20;}
	.st1{fill:#4CC8ED;}
</style>
<g>
	<polygon class="st0" points="0.9,146.6 44.2,146.6 43.9,109.9 	"/>
	<polygon class="st0" points="44.2,146.6 87.5,146.6 87.2,109.9 	"/>
	<polygon class="st0" points="87.4,146.6 130.7,146.6 130.5,109.9 	"/>
	<polygon class="st1" points="130.8,146.6 174,146.6 173.8,109.9 	"/>
	<polygon class="st0" points="0.6,110 43.9,110 43.6,73.2 	"/>
	<polygon class="st0" points="43.8,110 87.1,110 86.9,73.2 	"/>
	<polygon class="st0" points="87.1,110 130.4,110 130.1,73.2 	"/>
	<polygon class="st0" points="130.4,110 173.7,110 173.4,73.2 	"/>
	<polygon class="st0" points="0.3,73.4 43.6,73.4 43.3,36.7 	"/>
	<polygon class="st0" points="43.6,73.4 86.9,73.4 86.6,36.7 	"/>
	<polygon class="st0" points="86.8,73.4 130.1,73.4 129.8,36.7 	"/>
	<polygon class="st0" points="130.1,73.3 173.4,73.3 173.2,36.6 	"/>
	<polygon class="st0" points="0,36.9 43.3,36.9 43.1,0.1 	"/>
	<polygon class="st0" points="43.3,36.9 86.6,36.9 86.3,0.1 	"/>
	<polygon class="st0" points="86.5,36.9 129.8,36.9 129.6,0.1 	"/>
	<polygon class="st0" points="129.9,36.7 173.2,36.7 172.9,0 	"/>
</g>
</svg>
