<?xml version="1.0" encoding="utf-8"?>
<!-- Generator: Adobe Illustrator 24.1.0, SVG Export Plug-In . SVG Version: 6.00 Build 0)  -->
<svg version="1.1" id="Layer_1" xmlns="http://www.w3.org/2000/svg" xmlns:xlink="http://www.w3.org/1999/xlink" x="0px" y="0px"
	 viewBox="0 0 179 152" style="enable-background:new 0 0 179 152;" xml:space="preserve">
<style type="text/css">
	.st0{fill:#FFFFFF;}
	.st1{fill:#4FC8EC;}
</style>
<g>
	<g>
		<polygon class="st0" points="3,149.3 46.3,149.3 46,112.6 		"/>
		<polygon class="st0" points="46.3,149.3 89.6,149.3 89.3,112.6 		"/>
		<polygon class="st0" points="89.5,149.3 132.8,149.3 132.6,112.6 		"/>
		<polygon class="st1" points="132.9,149.3 176.1,149.3 175.9,112.6 		"/>
		<polygon class="st0" points="2.7,112.7 46,112.7 45.7,75.9 		"/>
		<polygon class="st0" points="45.9,112.7 89.2,112.7 89,75.9 		"/>
		<polygon class="st0" points="89.2,112.7 132.5,112.7 132.2,75.9 		"/>
		<polygon class="st0" points="132.5,112.7 175.8,112.7 175.5,75.9 		"/>
		<polygon class="st0" points="2.4,76.1 45.7,76.1 45.4,39.4 		"/>
		<polygon class="st0" points="45.7,76.1 89,76.1 88.7,39.4 		"/>
		<polygon class="st0" points="88.9,76.1 132.2,76.1 131.9,39.4 		"/>
		<polygon class="st0" points="132.2,76 175.5,76 175.3,39.3 		"/>
		<polygon class="st0" points="2.1,39.6 45.4,39.6 45.2,2.8 		"/>
		<polygon class="st0" points="45.4,39.6 88.7,39.6 88.4,2.8 		"/>
		<polygon class="st0" points="88.6,39.6 131.9,39.6 131.7,2.8 		"/>
		<polygon class="st0" points="132,39.4 175.3,39.4 175,2.7 		"/>
	</g>
</g>
</svg>
