<?xml version="1.0" encoding="utf-8"?>
<!-- Generator: Adobe Illustrator 24.1.0, SVG Export Plug-In . SVG Version: 6.00 Build 0)  -->
<svg version="1.1" id="Layer_1" xmlns="http://www.w3.org/2000/svg" xmlns:xlink="http://www.w3.org/1999/xlink" x="0px" y="0px"
	 viewBox="0 0 390 148" style="enable-background:new 0 0 390 148;" xml:space="preserve">
<style type="text/css">
	.st0{fill:#231F20;}
	.st1{fill:#4CC8ED;}
</style>
<g>
	<polygon class="st0" points="1.5,147.3 44.8,147.3 44.5,110.6 	"/>
	<polygon class="st0" points="44.8,147.3 88.1,147.3 87.8,110.6 	"/>
	<polygon class="st0" points="88,147.3 131.3,147.3 131.1,110.6 	"/>
	<polygon class="st1" points="131.4,147.3 174.6,147.3 174.4,110.6 	"/>
	<polygon class="st0" points="1.2,110.7 44.5,110.7 44.2,73.9 	"/>
	<polygon class="st0" points="44.4,110.7 87.7,110.7 87.5,73.9 	"/>
	<polygon class="st0" points="87.7,110.7 131,110.7 130.7,73.9 	"/>
	<polygon class="st0" points="131,110.7 174.3,110.7 174,73.9 	"/>
	<polygon class="st0" points="0.9,74.1 44.2,74.1 43.9,37.4 	"/>
	<polygon class="st0" points="44.2,74.1 87.5,74.1 87.2,37.4 	"/>
	<polygon class="st0" points="87.4,74.1 130.7,74.1 130.4,37.4 	"/>
	<polygon class="st0" points="130.7,74 174,74 173.8,37.3 	"/>
	<polygon class="st0" points="0.6,37.6 43.9,37.6 43.7,0.8 	"/>
	<polygon class="st0" points="43.9,37.6 87.2,37.6 86.9,0.8 	"/>
	<polygon class="st0" points="87.1,37.6 130.4,37.6 130.2,0.8 	"/>
	<polygon class="st0" points="130.5,37.4 173.8,37.4 173.5,0.7 	"/>
</g>
<g>
	<path class="st0" d="M210.3,10.8c-1.4-1-3-1.5-5-1.5c-1.6,0-3,0.3-4.2,0.9c-1.2,0.6-2.1,1.4-2.9,2.5c-0.8,1-1.3,2.2-1.7,3.5
		c-0.4,1.3-0.5,2.7-0.5,4.1c0,1.6,0.2,3,0.5,4.4c0.4,1.4,0.9,2.6,1.7,3.6c0.8,1,1.7,1.9,2.9,2.5c1.2,0.6,2.6,0.9,4.2,0.9
		c1.2,0,2.3-0.2,3.2-0.6c0.9-0.4,1.7-0.9,2.4-1.6c0.7-0.7,1.2-1.5,1.6-2.5c0.4-1,0.6-2,0.7-3.1h3.6c-0.4,3.4-1.5,6.1-3.6,8
		c-2,1.9-4.8,2.9-8.3,2.9c-2.1,0-4-0.4-5.6-1.1c-1.6-0.7-2.9-1.7-3.9-3c-1-1.3-1.8-2.8-2.4-4.5c-0.5-1.7-0.8-3.6-0.8-5.6
		c0-2,0.3-3.9,0.8-5.6c0.6-1.7,1.4-3.3,2.5-4.6c1.1-1.3,2.4-2.3,4.1-3.1c1.6-0.8,3.5-1.1,5.6-1.1c1.4,0,2.8,0.2,4.1,0.6
		c1.3,0.4,2.4,0.9,3.4,1.7c1,0.7,1.8,1.7,2.5,2.8c0.7,1.1,1.1,2.4,1.3,3.8H213C212.6,13.3,211.7,11.8,210.3,10.8z"/>
	<path class="st0" d="M223,7v10.5h0.1c0.3-0.6,0.6-1.1,1.1-1.6c0.5-0.4,1-0.8,1.6-1c0.6-0.3,1.2-0.5,1.8-0.6
		c0.6-0.1,1.2-0.2,1.8-0.2c1.3,0,2.4,0.2,3.3,0.5c0.9,0.4,1.6,0.9,2.1,1.5c0.5,0.6,0.9,1.4,1.1,2.3s0.3,1.9,0.3,2.9v13h-3.3V20.9
		c0-1.2-0.4-2.2-1.1-2.9c-0.7-0.7-1.7-1.1-2.9-1.1c-1,0-1.9,0.2-2.6,0.5c-0.7,0.3-1.3,0.7-1.8,1.3c-0.5,0.6-0.8,1.2-1.1,2
		c-0.2,0.8-0.4,1.6-0.4,2.5v11.2h-3.3V7H223z"/>
	<path class="st0" d="M240.1,11V7h3.3v4H240.1z M243.3,14.5v19.8h-3.3V14.5H243.3z"/>
	<path class="st0" d="M259.1,18c-0.8-0.7-1.9-1-3.3-1c-1.2,0-2.2,0.2-2.9,0.7c-0.8,0.4-1.4,1-1.9,1.7c-0.5,0.7-0.8,1.5-1,2.5
		c-0.2,0.9-0.3,1.9-0.3,2.9c0,0.9,0.1,1.8,0.3,2.7c0.2,0.9,0.6,1.6,1,2.3c0.5,0.7,1.1,1.2,1.8,1.6s1.6,0.6,2.6,0.6
		c1.6,0,2.9-0.4,3.8-1.3c0.9-0.8,1.5-2,1.7-3.6h3.3c-0.4,2.4-1.3,4.3-2.7,5.7c-1.5,1.3-3.5,2-6,2c-1.5,0-2.8-0.2-4-0.7
		s-2.1-1.2-2.9-2.1c-0.8-0.9-1.4-2-1.8-3.2c-0.4-1.2-0.6-2.6-0.6-4.1c0-1.5,0.2-2.9,0.6-4.2c0.4-1.3,1-2.4,1.7-3.4
		c0.8-1,1.8-1.7,2.9-2.3c1.2-0.5,2.5-0.8,4.1-0.8c1.1,0,2.2,0.1,3.2,0.4c1,0.3,1.8,0.7,2.6,1.2c0.8,0.6,1.4,1.3,1.9,2.1
		c0.5,0.9,0.8,1.9,0.9,3h-3.4C260.4,19.6,259.9,18.7,259.1,18z"/>
	<path class="st0" d="M284.2,34.2c-0.6,0.3-1.3,0.5-2.3,0.5c-0.8,0-1.5-0.2-2-0.7c-0.5-0.5-0.7-1.2-0.7-2.3
		c-0.9,1.1-1.9,1.8-3.1,2.3c-1.2,0.5-2.5,0.7-3.8,0.7c-0.9,0-1.7-0.1-2.5-0.3s-1.5-0.5-2.1-1c-0.6-0.4-1.1-1-1.4-1.7
		c-0.3-0.7-0.5-1.6-0.5-2.5c0-1.1,0.2-2,0.6-2.8c0.4-0.7,0.9-1.3,1.5-1.7c0.6-0.4,1.3-0.8,2.1-1c0.8-0.2,1.6-0.4,2.5-0.6
		c0.9-0.2,1.7-0.3,2.5-0.4c0.8-0.1,1.5-0.2,2.1-0.4c0.6-0.2,1.1-0.4,1.5-0.7c0.4-0.3,0.5-0.8,0.5-1.4c0-0.7-0.1-1.3-0.4-1.7
		c-0.3-0.4-0.6-0.8-1-1c-0.4-0.2-0.9-0.4-1.4-0.5c-0.5-0.1-1-0.1-1.6-0.1c-1.4,0-2.5,0.3-3.4,0.8c-0.9,0.5-1.4,1.5-1.5,3h-3.3
		c0.1-1.2,0.3-2.3,0.8-3.1s1.1-1.5,1.8-2c0.8-0.5,1.6-0.9,2.6-1.1c1-0.2,2-0.3,3.2-0.3c0.9,0,1.8,0.1,2.7,0.2
		c0.9,0.1,1.7,0.4,2.4,0.8c0.7,0.4,1.3,0.9,1.7,1.7c0.4,0.7,0.7,1.6,0.7,2.8v10.2c0,0.8,0,1.3,0.1,1.7c0.1,0.4,0.4,0.5,0.9,0.5
		c0.3,0,0.6-0.1,1-0.2V34.2z M278.9,24.1c-0.4,0.3-0.9,0.5-1.6,0.7c-0.7,0.1-1.4,0.3-2.1,0.3c-0.7,0.1-1.5,0.2-2.2,0.3
		c-0.7,0.1-1.4,0.3-2,0.6c-0.6,0.3-1.1,0.6-1.4,1.1c-0.4,0.5-0.6,1.1-0.6,1.9c0,0.5,0.1,1,0.3,1.4c0.2,0.4,0.5,0.7,0.8,0.9
		c0.3,0.2,0.7,0.4,1.2,0.5c0.5,0.1,0.9,0.2,1.5,0.2c1.1,0,2-0.1,2.8-0.4s1.4-0.7,1.9-1.1c0.5-0.4,0.8-0.9,1.1-1.4s0.3-1,0.3-1.5
		V24.1z"/>
	<path class="st0" d="M300.9,39.9c-1.5,1.6-3.8,2.4-7,2.4c-0.9,0-1.9-0.1-2.8-0.3c-1-0.2-1.8-0.5-2.6-1c-0.8-0.5-1.4-1.1-1.9-1.8
		c-0.5-0.7-0.8-1.6-0.8-2.7h3.3c0,0.6,0.2,1.1,0.6,1.5c0.3,0.4,0.8,0.7,1.3,1c0.5,0.3,1,0.4,1.6,0.6c0.6,0.1,1.1,0.2,1.7,0.2
		c1.1,0,2-0.2,2.7-0.6c0.7-0.4,1.4-0.9,1.8-1.5c0.5-0.7,0.8-1.4,1.1-2.4c0.2-0.9,0.3-1.9,0.3-3v-1.3H300c-0.6,1.2-1.4,2.1-2.5,2.7
		s-2.3,0.9-3.6,0.9c-1.5,0-2.8-0.3-3.9-0.8c-1.1-0.5-2-1.3-2.8-2.2c-0.7-0.9-1.3-2-1.7-3.2c-0.4-1.2-0.6-2.5-0.6-3.8
		c0-1.2,0.2-2.4,0.5-3.6c0.3-1.2,0.8-2.4,1.5-3.4c0.7-1,1.7-1.8,2.8-2.5c1.2-0.7,2.6-1,4.3-1c1.3,0,2.4,0.3,3.4,0.8
		c1,0.5,1.9,1.4,2.5,2.5h0v-2.8h3.1v18.1C303.1,35.9,302.4,38.3,300.9,39.9z M296.8,31c0.8-0.4,1.4-1,1.8-1.8c0.5-0.7,0.8-1.6,1-2.5
		c0.2-0.9,0.3-1.8,0.3-2.8c0-0.9-0.1-1.7-0.3-2.6c-0.2-0.8-0.5-1.6-1-2.3c-0.4-0.7-1-1.2-1.7-1.6c-0.7-0.4-1.6-0.6-2.6-0.6
		c-1,0-1.9,0.2-2.7,0.6c-0.7,0.4-1.3,0.9-1.8,1.6c-0.5,0.7-0.8,1.4-1,2.3s-0.3,1.8-0.3,2.7c0,0.9,0.1,1.8,0.3,2.7
		c0.2,0.9,0.5,1.7,0.9,2.4c0.4,0.7,1,1.3,1.7,1.8c0.7,0.4,1.6,0.7,2.7,0.7C295.1,31.7,296,31.4,296.8,31z"/>
	<path class="st0" d="M306.4,20.4c0.4-1.3,1-2.4,1.8-3.3c0.8-0.9,1.8-1.7,3-2.2c1.2-0.5,2.6-0.8,4.1-0.8c1.6,0,3,0.3,4.2,0.8
		c1.2,0.5,2.2,1.3,3,2.2c0.8,0.9,1.4,2,1.8,3.3s0.6,2.6,0.6,4.1s-0.2,2.8-0.6,4.1c-0.4,1.3-1,2.3-1.8,3.3c-0.8,0.9-1.8,1.7-3,2.2
		c-1.2,0.5-2.6,0.8-4.2,0.8c-1.6,0-2.9-0.3-4.1-0.8c-1.2-0.5-2.2-1.2-3-2.2c-0.8-0.9-1.4-2-1.8-3.3c-0.4-1.2-0.6-2.6-0.6-4.1
		S306,21.6,306.4,20.4z M309.7,27.6c0.3,0.9,0.8,1.7,1.3,2.3c0.6,0.6,1.2,1.1,2,1.4c0.8,0.3,1.5,0.5,2.4,0.5c0.8,0,1.6-0.2,2.4-0.5
		c0.8-0.3,1.4-0.8,2-1.4c0.6-0.6,1-1.4,1.3-2.3c0.3-0.9,0.5-2,0.5-3.2c0-1.2-0.2-2.3-0.5-3.2c-0.3-0.9-0.8-1.7-1.3-2.4
		c-0.6-0.6-1.2-1.1-2-1.5c-0.8-0.3-1.6-0.5-2.4-0.5c-0.8,0-1.6,0.2-2.4,0.5c-0.8,0.3-1.4,0.8-2,1.5c-0.6,0.6-1,1.4-1.3,2.4
		c-0.3,0.9-0.5,2-0.5,3.2C309.3,25.6,309.4,26.7,309.7,27.6z"/>
	<path class="st0" d="M210.3,48.3c-1.4-1-3-1.5-5-1.5c-1.6,0-3,0.3-4.2,0.9c-1.2,0.6-2.1,1.4-2.9,2.5c-0.8,1-1.3,2.2-1.7,3.5
		c-0.4,1.3-0.5,2.7-0.5,4.1c0,1.6,0.2,3,0.5,4.4c0.4,1.4,0.9,2.6,1.7,3.6c0.8,1,1.7,1.9,2.9,2.5c1.2,0.6,2.6,0.9,4.2,0.9
		c1.2,0,2.3-0.2,3.2-0.6c0.9-0.4,1.7-0.9,2.4-1.6c0.7-0.7,1.2-1.5,1.6-2.5c0.4-1,0.6-2,0.7-3.1h3.6c-0.4,3.4-1.5,6.1-3.6,8
		c-2,1.9-4.8,2.9-8.3,2.9c-2.1,0-4-0.4-5.6-1.1c-1.6-0.7-2.9-1.7-3.9-3c-1-1.3-1.8-2.8-2.4-4.5c-0.5-1.7-0.8-3.6-0.8-5.6
		c0-2,0.3-3.9,0.8-5.6c0.6-1.7,1.4-3.3,2.5-4.6c1.1-1.3,2.4-2.3,4.1-3.1c1.6-0.8,3.5-1.1,5.6-1.1c1.4,0,2.8,0.2,4.1,0.6
		c1.3,0.4,2.4,0.9,3.4,1.7c1,0.7,1.8,1.7,2.5,2.8c0.7,1.1,1.1,2.4,1.3,3.8H213C212.6,50.7,211.7,49.3,210.3,48.3z"/>
	<path class="st0" d="M233.1,71.8v-3.1H233c-0.7,1.2-1.6,2.1-2.6,2.7c-1.1,0.6-2.3,0.9-3.8,0.9c-1.3,0-2.4-0.2-3.3-0.5
		c-0.9-0.3-1.6-0.8-2.1-1.5c-0.5-0.6-0.9-1.4-1.1-2.3c-0.2-0.9-0.3-1.9-0.3-2.9V52h3.3v13.4c0,1.2,0.4,2.2,1.1,2.9
		c0.7,0.7,1.7,1.1,2.9,1.1c1,0,1.9-0.2,2.6-0.5s1.3-0.7,1.8-1.3c0.5-0.6,0.8-1.2,1.1-2c0.2-0.8,0.4-1.6,0.4-2.5V52h3.3v19.8H233.1z"
		/>
	<path class="st0" d="M243.3,44.4v27.3h-3.3V44.4H243.3z"/>
	<path class="st0" d="M255.7,52v2.9h-3.9v12.3c0,0.4,0,0.7,0.1,0.9c0.1,0.2,0.2,0.4,0.4,0.5c0.2,0.1,0.4,0.2,0.7,0.2
		c0.3,0,0.7,0.1,1.2,0.1h1.5v2.9h-2.5c-0.8,0-1.6-0.1-2.2-0.2s-1.1-0.3-1.5-0.6c-0.4-0.3-0.6-0.7-0.8-1.3c-0.2-0.6-0.3-1.3-0.3-2.2
		V54.9h-3.4V52h3.4V46h3.3V52H255.7z"/>
	<path class="st0" d="M271.5,71.8v-3.1h-0.1c-0.7,1.2-1.6,2.1-2.6,2.7c-1.1,0.6-2.3,0.9-3.8,0.9c-1.3,0-2.4-0.2-3.3-0.5
		s-1.6-0.8-2.1-1.5c-0.5-0.6-0.9-1.4-1.1-2.3s-0.3-1.9-0.3-2.9V52h3.3v13.4c0,1.2,0.4,2.2,1.1,2.9c0.7,0.7,1.7,1.1,2.9,1.1
		c1,0,1.9-0.2,2.6-0.5s1.3-0.7,1.8-1.3c0.5-0.6,0.8-1.2,1.1-2c0.2-0.8,0.4-1.6,0.4-2.5V52h3.3v19.8H271.5z"/>
	<path class="st0" d="M281.2,52v4.2h0.1c0.8-1.6,1.8-2.8,2.9-3.6c1.1-0.8,2.6-1.1,4.4-1.1V55c-1.3,0-2.4,0.2-3.3,0.5
		c-0.9,0.4-1.7,0.9-2.2,1.6s-1,1.5-1.2,2.5c-0.3,1-0.4,2.1-0.4,3.4v8.8h-3.3V52H281.2z"/>
	<path class="st0" d="M307.4,71.7c-0.6,0.3-1.3,0.5-2.3,0.5c-0.8,0-1.5-0.2-2-0.7c-0.5-0.5-0.7-1.2-0.7-2.3
		c-0.9,1.1-1.9,1.8-3.1,2.3c-1.2,0.5-2.5,0.7-3.8,0.7c-0.9,0-1.7-0.1-2.5-0.3s-1.5-0.5-2.1-1c-0.6-0.4-1.1-1-1.4-1.7
		c-0.3-0.7-0.5-1.6-0.5-2.5c0-1.1,0.2-2,0.6-2.8c0.4-0.7,0.9-1.3,1.5-1.7c0.6-0.4,1.3-0.8,2.1-1c0.8-0.2,1.6-0.4,2.5-0.6
		c0.9-0.2,1.7-0.3,2.5-0.4c0.8-0.1,1.5-0.2,2.1-0.4c0.6-0.2,1.1-0.4,1.5-0.7c0.4-0.3,0.5-0.8,0.5-1.4c0-0.7-0.1-1.3-0.4-1.7
		c-0.3-0.4-0.6-0.8-1-1c-0.4-0.2-0.9-0.4-1.4-0.5c-0.5-0.1-1-0.1-1.6-0.1c-1.4,0-2.5,0.3-3.4,0.8c-0.9,0.5-1.4,1.5-1.5,3h-3.3
		c0.1-1.2,0.3-2.3,0.8-3.1s1.1-1.5,1.8-2c0.8-0.5,1.6-0.9,2.6-1.1c1-0.2,2-0.3,3.2-0.3c0.9,0,1.8,0.1,2.7,0.2
		c0.9,0.1,1.7,0.4,2.4,0.8c0.7,0.4,1.3,0.9,1.7,1.7c0.4,0.7,0.7,1.6,0.7,2.8v10.2c0,0.8,0,1.3,0.1,1.7c0.1,0.4,0.4,0.5,0.9,0.5
		c0.3,0,0.6-0.1,1-0.2V71.7z M302.1,61.6c-0.4,0.3-0.9,0.5-1.6,0.7c-0.7,0.1-1.4,0.3-2.1,0.3c-0.7,0.1-1.5,0.2-2.2,0.3
		c-0.7,0.1-1.4,0.3-2,0.6c-0.6,0.3-1.1,0.6-1.4,1.1c-0.4,0.5-0.6,1.1-0.6,1.9c0,0.5,0.1,1,0.3,1.4c0.2,0.4,0.5,0.7,0.8,0.9
		c0.3,0.2,0.7,0.4,1.2,0.5c0.5,0.1,0.9,0.2,1.5,0.2c1.1,0,2-0.1,2.8-0.4s1.4-0.7,1.9-1.1c0.5-0.4,0.8-0.9,1.1-1.4s0.3-1,0.3-1.5
		V61.6z"/>
	<path class="st0" d="M312.7,44.4v27.3h-3.3V44.4H312.7z"/>
	<path class="st0" d="M205.3,81.9l10.7,27.3h-4l-3-8.2h-11.6l-3.1,8.2h-3.7l10.6-27.3H205.3z M207.8,97.9l-4.6-12.7h-0.1l-4.6,12.7
		H207.8z"/>
	<path class="st0" d="M228.8,92.9c-0.8-0.7-1.9-1-3.3-1c-1.2,0-2.2,0.2-2.9,0.7c-0.8,0.4-1.4,1-1.9,1.7c-0.5,0.7-0.8,1.5-1,2.5
		c-0.2,0.9-0.3,1.9-0.3,2.9c0,0.9,0.1,1.8,0.3,2.7c0.2,0.9,0.6,1.6,1,2.3c0.5,0.7,1.1,1.2,1.8,1.6c0.7,0.4,1.6,0.6,2.6,0.6
		c1.6,0,2.9-0.4,3.8-1.3c0.9-0.8,1.5-2,1.7-3.6h3.3c-0.4,2.4-1.3,4.3-2.7,5.7c-1.5,1.3-3.5,2-6,2c-1.5,0-2.8-0.2-4-0.7
		c-1.2-0.5-2.1-1.2-2.9-2.1s-1.4-2-1.8-3.2c-0.4-1.2-0.6-2.6-0.6-4.1c0-1.5,0.2-2.9,0.6-4.2c0.4-1.3,1-2.4,1.7-3.4
		c0.8-1,1.8-1.7,2.9-2.3c1.2-0.5,2.5-0.8,4.1-0.8c1.1,0,2.2,0.1,3.2,0.4c1,0.3,1.8,0.7,2.6,1.2s1.4,1.3,1.9,2.1
		c0.5,0.9,0.8,1.9,0.9,3h-3.4C230.1,94.5,229.6,93.6,228.8,92.9z"/>
	<path class="st0" d="M248.2,92.9c-0.8-0.7-1.9-1-3.3-1c-1.2,0-2.2,0.2-2.9,0.7c-0.8,0.4-1.4,1-1.9,1.7c-0.5,0.7-0.8,1.5-1,2.5
		c-0.2,0.9-0.3,1.9-0.3,2.9c0,0.9,0.1,1.8,0.3,2.7c0.2,0.9,0.6,1.6,1,2.3c0.5,0.7,1.1,1.2,1.8,1.6c0.7,0.4,1.6,0.6,2.6,0.6
		c1.6,0,2.9-0.4,3.8-1.3c0.9-0.8,1.5-2,1.7-3.6h3.3c-0.4,2.4-1.3,4.3-2.7,5.7c-1.5,1.3-3.5,2-6,2c-1.5,0-2.8-0.2-4-0.7
		c-1.2-0.5-2.1-1.2-2.9-2.1s-1.4-2-1.8-3.2c-0.4-1.2-0.6-2.6-0.6-4.1c0-1.5,0.2-2.9,0.6-4.2c0.4-1.3,1-2.4,1.7-3.4
		c0.8-1,1.8-1.7,2.9-2.3c1.2-0.5,2.5-0.8,4.1-0.8c1.1,0,2.2,0.1,3.2,0.4c1,0.3,1.8,0.7,2.6,1.2s1.4,1.3,1.9,2.1
		c0.5,0.9,0.8,1.9,0.9,3h-3.4C249.5,94.5,249,93.6,248.2,92.9z"/>
	<path class="st0" d="M269.8,108c-1.5,1.1-3.3,1.7-5.6,1.7c-1.6,0-3-0.3-4.1-0.8c-1.2-0.5-2.1-1.2-2.9-2.1s-1.4-2-1.8-3.3
		c-0.4-1.3-0.6-2.7-0.7-4.2c0-1.5,0.2-2.9,0.7-4.1c0.5-1.2,1.1-2.3,1.9-3.3c0.8-0.9,1.8-1.6,2.9-2.1c1.1-0.5,2.4-0.8,3.7-0.8
		c1.8,0,3.2,0.4,4.4,1.1c1.2,0.7,2.1,1.7,2.8,2.8c0.7,1.1,1.2,2.3,1.5,3.7c0.3,1.3,0.4,2.6,0.3,3.8h-14.8c0,0.9,0.1,1.7,0.3,2.5
		c0.2,0.8,0.6,1.5,1.1,2.1c0.5,0.6,1.2,1.1,2,1.4c0.8,0.4,1.7,0.5,2.8,0.5c1.4,0,2.5-0.3,3.4-1c0.9-0.6,1.5-1.6,1.7-2.9h3.2
		C272.2,105.2,271.2,106.8,269.8,108z M269,95.3c-0.3-0.7-0.7-1.3-1.2-1.8c-0.5-0.5-1.1-0.9-1.8-1.2c-0.7-0.3-1.4-0.4-2.2-0.4
		c-0.8,0-1.6,0.1-2.3,0.4c-0.7,0.3-1.3,0.7-1.7,1.2c-0.5,0.5-0.9,1.1-1.1,1.8c-0.3,0.7-0.4,1.4-0.5,2.2h11.4
		C269.4,96.7,269.3,95.9,269,95.3z"/>
	<path class="st0" d="M277.6,104.8c0.3,0.5,0.7,0.9,1.2,1.2c0.5,0.3,1.1,0.5,1.7,0.6c0.6,0.1,1.3,0.2,1.9,0.2c0.5,0,1,0,1.6-0.1
		c0.6-0.1,1.1-0.2,1.5-0.4s0.9-0.5,1.2-0.9c0.3-0.4,0.5-0.9,0.5-1.5c0-0.8-0.3-1.5-1-1.9c-0.6-0.4-1.4-0.8-2.4-1.1
		c-1-0.3-2-0.5-3.1-0.7c-1.1-0.2-2.2-0.5-3.1-0.9s-1.8-1-2.4-1.7s-1-1.7-1-3c0-1,0.2-1.8,0.7-2.6c0.4-0.7,1-1.3,1.7-1.7
		s1.5-0.8,2.4-1c0.9-0.2,1.8-0.3,2.6-0.3c1.1,0,2.2,0.1,3.1,0.3c0.9,0.2,1.8,0.5,2.5,1c0.7,0.5,1.3,1.1,1.7,1.9
		c0.4,0.8,0.7,1.8,0.8,3h-3.3c-0.1-0.6-0.2-1.2-0.5-1.6c-0.3-0.4-0.6-0.8-1.1-1c-0.4-0.3-0.9-0.4-1.4-0.6c-0.5-0.1-1.1-0.2-1.6-0.2
		c-0.5,0-1,0-1.5,0.1c-0.5,0.1-1,0.2-1.4,0.4s-0.7,0.4-1,0.8c-0.3,0.3-0.4,0.7-0.4,1.2c0,0.6,0.2,1,0.6,1.4c0.4,0.4,0.9,0.7,1.5,0.9
		s1.3,0.4,2.1,0.6s1.5,0.3,2.3,0.5c0.8,0.2,1.6,0.4,2.4,0.7c0.8,0.3,1.5,0.6,2.1,1s1.1,1,1.5,1.6c0.4,0.6,0.6,1.4,0.6,2.4
		c0,1.2-0.2,2.2-0.7,3c-0.5,0.8-1.1,1.4-2,1.9c-0.8,0.5-1.7,0.8-2.7,1c-1,0.2-2,0.3-3,0.3c-1.1,0-2.1-0.1-3.1-0.3
		c-1-0.2-1.9-0.6-2.6-1.1c-0.8-0.5-1.4-1.2-1.8-2.1c-0.5-0.9-0.7-1.9-0.8-3.1h3.3C277.2,103.7,277.3,104.3,277.6,104.8z"/>
	<path class="st0" d="M295.6,104.8c0.3,0.5,0.7,0.9,1.2,1.2c0.5,0.3,1.1,0.5,1.7,0.6c0.6,0.1,1.3,0.2,1.9,0.2c0.5,0,1,0,1.6-0.1
		c0.6-0.1,1.1-0.2,1.5-0.4s0.9-0.5,1.2-0.9c0.3-0.4,0.5-0.9,0.5-1.5c0-0.8-0.3-1.5-1-1.9c-0.6-0.4-1.4-0.8-2.4-1.1
		c-1-0.3-2-0.5-3.1-0.7c-1.1-0.2-2.2-0.5-3.1-0.9s-1.8-1-2.4-1.7s-1-1.7-1-3c0-1,0.2-1.8,0.7-2.6c0.4-0.7,1-1.3,1.7-1.7
		s1.5-0.8,2.4-1c0.9-0.2,1.8-0.3,2.6-0.3c1.1,0,2.2,0.1,3.1,0.3c0.9,0.2,1.8,0.5,2.5,1c0.7,0.5,1.3,1.1,1.7,1.9
		c0.4,0.8,0.7,1.8,0.8,3h-3.3c-0.1-0.6-0.2-1.2-0.5-1.6c-0.3-0.4-0.6-0.8-1.1-1c-0.4-0.3-0.9-0.4-1.4-0.6c-0.5-0.1-1.1-0.2-1.6-0.2
		c-0.5,0-1,0-1.5,0.1c-0.5,0.1-1,0.2-1.4,0.4s-0.7,0.4-1,0.8c-0.3,0.3-0.4,0.7-0.4,1.2c0,0.6,0.2,1,0.6,1.4c0.4,0.4,0.9,0.7,1.5,0.9
		s1.3,0.4,2.1,0.6s1.5,0.3,2.3,0.5c0.8,0.2,1.6,0.4,2.4,0.7c0.8,0.3,1.5,0.6,2.1,1s1.1,1,1.5,1.6c0.4,0.6,0.6,1.4,0.6,2.4
		c0,1.2-0.2,2.2-0.7,3c-0.5,0.8-1.1,1.4-2,1.9c-0.8,0.5-1.7,0.8-2.7,1c-1,0.2-2,0.3-3,0.3c-1.1,0-2.1-0.1-3.1-0.3
		c-1-0.2-1.9-0.6-2.6-1.1c-0.8-0.5-1.4-1.2-1.8-2.1c-0.5-0.9-0.7-1.9-0.8-3.1h3.3C295.2,103.7,295.3,104.3,295.6,104.8z"/>
	<path class="st0" d="M311.3,85.9v-4h3.3v4H311.3z M314.6,89.4v19.8h-3.3V89.4H314.6z"/>
	<path class="st0" d="M321.9,81.9v10.2h0.1c0.5-1.1,1.4-1.9,2.5-2.4c1.1-0.5,2.4-0.7,3.8-0.7c1.5,0,2.9,0.3,4,0.8s2.1,1.3,2.8,2.3
		s1.3,2.1,1.7,3.3c0.4,1.3,0.6,2.6,0.6,4c0,1.4-0.2,2.7-0.6,4c-0.4,1.2-0.9,2.3-1.7,3.3c-0.8,0.9-1.7,1.7-2.8,2.2
		c-1.1,0.5-2.5,0.8-4,0.8c-0.5,0-1-0.1-1.6-0.2c-0.6-0.1-1.2-0.3-1.8-0.5s-1.1-0.5-1.7-0.9c-0.5-0.4-1-0.9-1.3-1.5h-0.1v2.6h-3.3
		V81.9H321.9z M333.5,96.5c-0.2-0.9-0.6-1.7-1.1-2.4c-0.5-0.7-1.1-1.2-1.9-1.6c-0.8-0.4-1.7-0.6-2.7-0.6c-1.1,0-2,0.2-2.8,0.7
		c-0.8,0.4-1.4,1-1.9,1.7c-0.5,0.7-0.8,1.5-1.1,2.4c-0.2,0.9-0.3,1.8-0.3,2.7c0,1,0.1,1.9,0.3,2.8s0.6,1.7,1.1,2.4
		c0.5,0.7,1.1,1.2,1.9,1.7s1.7,0.6,2.9,0.6c1.1,0,2.1-0.2,2.8-0.7c0.8-0.4,1.4-1,1.8-1.7c0.5-0.7,0.8-1.5,1-2.4
		c0.2-0.9,0.3-1.9,0.3-2.8C333.9,98.2,333.8,97.3,333.5,96.5z"/>
	<path class="st0" d="M340.2,85.9v-4h3.3v4H340.2z M343.5,89.4v19.8h-3.3V89.4H343.5z"/>
	<path class="st0" d="M350.8,81.9v27.3h-3.3V81.9H350.8z"/>
	<path class="st0" d="M354.9,85.9v-4h3.3v4H354.9z M358.2,89.4v19.8h-3.3V89.4H358.2z"/>
	<path class="st0" d="M370.5,89.4v2.9h-3.9v12.3c0,0.4,0,0.7,0.1,0.9s0.2,0.4,0.4,0.5s0.4,0.2,0.7,0.2c0.3,0,0.7,0.1,1.2,0.1h1.5
		v2.9h-2.5c-0.8,0-1.6-0.1-2.2-0.2c-0.6-0.1-1.1-0.3-1.5-0.6c-0.4-0.3-0.6-0.7-0.8-1.3c-0.2-0.6-0.3-1.3-0.3-2.2V92.3H360v-2.9h3.4
		v-5.9h3.3v5.9H370.5z"/>
	<path class="st0" d="M380.8,111.9c-0.4,1-0.8,1.8-1.1,2.4c-0.4,0.7-0.8,1.2-1.2,1.6s-0.9,0.7-1.5,0.9s-1.2,0.3-1.9,0.3
		c-0.4,0-0.8,0-1.1-0.1c-0.4-0.1-0.8-0.1-1.1-0.3v-3c0.3,0.1,0.6,0.2,1,0.3c0.4,0.1,0.7,0.1,0.9,0.1c0.7,0,1.2-0.2,1.7-0.5
		c0.4-0.3,0.8-0.8,1-1.4l1.3-3.3l-7.8-19.7h3.7l5.8,16.2h0.1l5.6-16.2h3.4L380.8,111.9z"/>
	<path class="st0" d="M210.3,123.2c-1.4-1-3-1.5-5-1.5c-1.6,0-3,0.3-4.2,0.9c-1.2,0.6-2.1,1.4-2.9,2.5c-0.8,1-1.3,2.2-1.7,3.5
		s-0.5,2.7-0.5,4.1c0,1.6,0.2,3,0.5,4.4s0.9,2.6,1.7,3.6c0.8,1,1.7,1.9,2.9,2.5s2.6,0.9,4.2,0.9c1.2,0,2.3-0.2,3.2-0.6
		c0.9-0.4,1.7-0.9,2.4-1.6c0.7-0.7,1.2-1.5,1.6-2.5s0.6-2,0.7-3.1h3.6c-0.4,3.4-1.5,6.1-3.6,8c-2,1.9-4.8,2.9-8.3,2.9
		c-2.1,0-4-0.4-5.6-1.1c-1.6-0.7-2.9-1.7-3.9-3c-1-1.3-1.8-2.8-2.4-4.5c-0.5-1.7-0.8-3.6-0.8-5.6c0-2,0.3-3.9,0.8-5.6
		c0.6-1.7,1.4-3.3,2.5-4.6c1.1-1.3,2.4-2.3,4.1-3.1s3.5-1.1,5.6-1.1c1.4,0,2.8,0.2,4.1,0.6c1.3,0.4,2.4,0.9,3.4,1.7s1.8,1.7,2.5,2.8
		c0.7,1.1,1.1,2.4,1.3,3.8H213C212.6,125.6,211.7,124.2,210.3,123.2z"/>
	<path class="st0" d="M219.3,132.7c0.4-1.3,1-2.4,1.8-3.3c0.8-0.9,1.8-1.7,3-2.2c1.2-0.5,2.6-0.8,4.1-0.8c1.6,0,3,0.3,4.2,0.8
		c1.2,0.5,2.2,1.3,3,2.2c0.8,0.9,1.4,2,1.8,3.3c0.4,1.3,0.6,2.6,0.6,4.1c0,1.5-0.2,2.8-0.6,4.1c-0.4,1.3-1,2.3-1.8,3.3
		c-0.8,0.9-1.8,1.7-3,2.2c-1.2,0.5-2.6,0.8-4.2,0.8c-1.6,0-2.9-0.3-4.1-0.8c-1.2-0.5-2.2-1.2-3-2.2c-0.8-0.9-1.4-2-1.8-3.3
		c-0.4-1.2-0.6-2.6-0.6-4.1C218.7,135.4,218.9,134,219.3,132.7z M222.6,140c0.3,0.9,0.8,1.7,1.3,2.3c0.6,0.6,1.2,1.1,2,1.4
		c0.8,0.3,1.5,0.5,2.4,0.5c0.8,0,1.6-0.2,2.4-0.5c0.8-0.3,1.4-0.8,2-1.4c0.6-0.6,1-1.4,1.3-2.3c0.3-0.9,0.5-2,0.5-3.2
		c0-1.2-0.2-2.3-0.5-3.2c-0.3-0.9-0.8-1.7-1.3-2.4c-0.6-0.6-1.2-1.1-2-1.5s-1.5-0.5-2.4-0.5c-0.8,0-1.6,0.2-2.4,0.5
		c-0.8,0.3-1.4,0.8-2,1.5c-0.6,0.6-1,1.4-1.3,2.4c-0.3,0.9-0.5,2-0.5,3.2C222.1,138,222.3,139.1,222.6,140z"/>
	<path class="st0" d="M243.6,126.9v3.1h0.1c1.4-2.4,3.5-3.6,6.4-3.6c1.3,0,2.4,0.2,3.3,0.5s1.6,0.9,2.1,1.5c0.5,0.6,0.9,1.4,1.1,2.3
		c0.2,0.9,0.3,1.9,0.3,2.9v13h-3.3v-13.4c0-1.2-0.4-2.2-1.1-2.9s-1.7-1.1-2.9-1.1c-1,0-1.9,0.2-2.6,0.5c-0.7,0.3-1.3,0.7-1.8,1.3
		c-0.5,0.6-0.8,1.2-1.1,2c-0.2,0.8-0.4,1.6-0.4,2.5v11.2h-3.3v-19.8H243.6z"/>
	<path class="st0" d="M263.2,142.3c0.3,0.5,0.7,0.9,1.2,1.2c0.5,0.3,1.1,0.5,1.7,0.6c0.6,0.1,1.3,0.2,1.9,0.2c0.5,0,1,0,1.6-0.1
		c0.6-0.1,1.1-0.2,1.5-0.4s0.9-0.5,1.2-0.9c0.3-0.4,0.5-0.9,0.5-1.5c0-0.8-0.3-1.5-1-1.9c-0.6-0.4-1.4-0.8-2.4-1.1
		c-1-0.3-2-0.5-3.1-0.7c-1.1-0.2-2.2-0.5-3.1-0.9s-1.8-1-2.4-1.7c-0.6-0.7-1-1.7-1-3c0-1,0.2-1.8,0.7-2.6c0.4-0.7,1-1.3,1.7-1.7
		s1.5-0.8,2.4-1c0.9-0.2,1.8-0.3,2.6-0.3c1.1,0,2.2,0.1,3.1,0.3c0.9,0.2,1.8,0.5,2.5,1c0.7,0.5,1.3,1.1,1.7,1.9
		c0.4,0.8,0.7,1.8,0.8,3h-3.3c-0.1-0.6-0.2-1.2-0.5-1.6c-0.3-0.4-0.6-0.8-1.1-1c-0.4-0.3-0.9-0.4-1.4-0.6c-0.5-0.1-1.1-0.2-1.6-0.2
		c-0.5,0-1,0-1.5,0.1c-0.5,0.1-1,0.2-1.4,0.4c-0.4,0.2-0.7,0.4-1,0.8c-0.3,0.3-0.4,0.7-0.4,1.2c0,0.6,0.2,1,0.6,1.4s0.9,0.7,1.5,0.9
		s1.3,0.4,2.1,0.6s1.5,0.3,2.3,0.5c0.8,0.2,1.6,0.4,2.4,0.7c0.8,0.3,1.5,0.6,2.1,1s1.1,1,1.5,1.6c0.4,0.6,0.6,1.4,0.6,2.4
		c0,1.2-0.2,2.2-0.7,3c-0.5,0.8-1.1,1.4-2,1.9c-0.8,0.5-1.7,0.8-2.7,1c-1,0.2-2,0.3-3,0.3c-1.1,0-2.1-0.1-3.1-0.3
		c-1-0.2-1.9-0.6-2.6-1.1c-0.8-0.5-1.4-1.2-1.8-2.1c-0.5-0.9-0.7-1.9-0.8-3.1h3.3C262.7,141.2,262.9,141.8,263.2,142.3z"/>
	<path class="st0" d="M278.3,132.7c0.4-1.3,1-2.4,1.8-3.3c0.8-0.9,1.8-1.7,3-2.2c1.2-0.5,2.6-0.8,4.1-0.8c1.6,0,3,0.3,4.2,0.8
		c1.2,0.5,2.2,1.3,3,2.2c0.8,0.9,1.4,2,1.8,3.3c0.4,1.3,0.6,2.6,0.6,4.1c0,1.5-0.2,2.8-0.6,4.1c-0.4,1.3-1,2.3-1.8,3.3
		c-0.8,0.9-1.8,1.7-3,2.2c-1.2,0.5-2.6,0.8-4.2,0.8c-1.6,0-2.9-0.3-4.1-0.8c-1.2-0.5-2.2-1.2-3-2.2c-0.8-0.9-1.4-2-1.8-3.3
		c-0.4-1.2-0.6-2.6-0.6-4.1C277.6,135.4,277.8,134,278.3,132.7z M281.6,140c0.3,0.9,0.8,1.7,1.3,2.3c0.6,0.6,1.2,1.1,2,1.4
		c0.8,0.3,1.5,0.5,2.4,0.5c0.8,0,1.6-0.2,2.4-0.5c0.8-0.3,1.4-0.8,2-1.4c0.6-0.6,1-1.4,1.3-2.3c0.3-0.9,0.5-2,0.5-3.2
		c0-1.2-0.2-2.3-0.5-3.2c-0.3-0.9-0.8-1.7-1.3-2.4c-0.6-0.6-1.2-1.1-2-1.5c-0.8-0.3-1.6-0.5-2.4-0.5c-0.8,0-1.6,0.2-2.4,0.5
		c-0.8,0.3-1.4,0.8-2,1.5c-0.6,0.6-1,1.4-1.3,2.4c-0.3,0.9-0.5,2-0.5,3.2C281.1,138,281.2,139.1,281.6,140z"/>
	<path class="st0" d="M302.5,126.9v4.2h0.1c0.8-1.6,1.8-2.8,2.9-3.6s2.6-1.1,4.4-1.1v3.4c-1.3,0-2.4,0.2-3.3,0.5
		c-0.9,0.4-1.7,0.9-2.2,1.6s-1,1.5-1.2,2.5c-0.3,1-0.4,2.1-0.4,3.4v8.8h-3.3v-19.8H302.5z"/>
	<path class="st0" d="M321.1,126.9v2.9h-3.9v12.3c0,0.4,0,0.7,0.1,0.9s0.2,0.4,0.4,0.5s0.4,0.2,0.7,0.2c0.3,0,0.7,0.1,1.2,0.1h1.5
		v2.9h-2.5c-0.8,0-1.6-0.1-2.2-0.2c-0.6-0.1-1.1-0.3-1.5-0.6c-0.4-0.3-0.6-0.7-0.8-1.3c-0.2-0.6-0.3-1.3-0.3-2.2v-12.6h-3.4v-2.9
		h3.4V121h3.3v5.9H321.1z"/>
	<path class="st0" d="M323.8,123.3v-4h3.3v4H323.8z M327,126.9v19.8h-3.3v-19.8H327z"/>
	<path class="st0" d="M344.2,146.7v-3.1h-0.1c-0.7,1.2-1.6,2.1-2.6,2.7c-1.1,0.6-2.3,0.9-3.8,0.9c-1.3,0-2.4-0.2-3.3-0.5
		c-0.9-0.3-1.6-0.8-2.1-1.5s-0.9-1.4-1.1-2.3c-0.2-0.9-0.3-1.9-0.3-2.9v-13h3.3v13.4c0,1.2,0.4,2.2,1.1,2.9c0.7,0.7,1.7,1.1,2.9,1.1
		c1,0,1.9-0.2,2.6-0.5c0.7-0.3,1.3-0.7,1.8-1.3c0.5-0.6,0.8-1.2,1.1-2s0.4-1.6,0.4-2.5v-11.2h3.3v19.8H344.2z"/>
	<path class="st0" d="M354.1,126.9v2.9h0.1c1.5-2.2,3.6-3.4,6.4-3.4c1.2,0,2.3,0.3,3.3,0.8c1,0.5,1.7,1.4,2.1,2.6
		c0.7-1.1,1.5-1.9,2.6-2.5s2.3-0.9,3.6-0.9c1,0,1.9,0.1,2.7,0.3c0.8,0.2,1.5,0.6,2.1,1c0.6,0.5,1,1.1,1.3,1.8s0.5,1.6,0.5,2.6v14.5
		h-3.3v-13c0-0.6-0.1-1.2-0.2-1.7c-0.1-0.5-0.3-1-0.6-1.4c-0.3-0.4-0.7-0.7-1.2-0.9c-0.5-0.2-1.1-0.3-1.9-0.3
		c-1.6,0-2.9,0.5-3.8,1.4s-1.4,2.1-1.4,3.7v12.3h-3.3v-13c0-0.6-0.1-1.2-0.2-1.8c-0.1-0.5-0.3-1-0.6-1.4c-0.3-0.4-0.7-0.7-1.1-0.9
		c-0.5-0.2-1.1-0.3-1.8-0.3c-0.9,0-1.8,0.2-2.4,0.6c-0.7,0.4-1.2,0.8-1.6,1.4s-0.7,1.1-0.9,1.7c-0.2,0.6-0.3,1.1-0.3,1.4v12.3h-3.3
		v-19.8H354.1z"/>
</g>
</svg>
