<?xml version="1.0" encoding="utf-8"?>
<!-- Generator: Adobe Illustrator 19.1.0, SVG Export Plug-In . SVG Version: 6.00 Build 0)  -->
<!DOCTYPE svg PUBLIC "-//W3C//DTD SVG 1.1//EN" "http://www.w3.org/Graphics/SVG/1.1/DTD/svg11.dtd">
<svg version="1.1" id="Layer_1" xmlns="http://www.w3.org/2000/svg" xmlns:xlink="http://www.w3.org/1999/xlink" x="0px" y="0px"
	 viewBox="0 0 48 48" style="enable-background:new 0 0 48 48;" xml:space="preserve">
<style type="text/css">
	.st0{clip-path:url(#SVGID_2_);fill:#010101;}
</style>
<g>
	<defs>
		<path id="SVGID_1_" d="M24,0C10.7,0,0,10.8,0,24c0,13.2,10.7,24,24,24c13.1,0,24-10.8,24-24C48,10.8,37.1,0,24,0z M24,10.3
			c1.8,0,3.4,1.5,3.4,3.3v9.6l7.4,4.6c0.8,0.5,1.2,1.4,1.2,2.2c0,0.7-0.2,1.4-0.7,2c-0.6,0.9-1.6,1.3-2.6,1.3
			c-0.7,0-1.3-0.2-1.9-0.5L21.7,27c-0.8-0.5-1.3-1.6-1.2-2.8V13.6C20.5,11.8,22,10.3,24,10.3z"/>
	</defs>
	<clipPath id="SVGID_2_">
		<use xlink:href="#SVGID_1_"  style="overflow:visible;"/>
	</clipPath>
	<rect x="-3.8" y="-3.8" class="st0" width="55.5" height="55.5"/>
</g>
</svg>
